<?xml version="1.0" encoding="utf-8"?>
<!-- Generator: Adobe Illustrator 24.0.0, SVG Export Plug-In . SVG Version: 6.00 Build 0)  -->
<svg version="1.1" id="Layer_1" xmlns="http://www.w3.org/2000/svg" xmlns:xlink="http://www.w3.org/1999/xlink" x="0px" y="0px"
	 viewBox="0 0 253.3 31.8" style="enable-background:new 0 0 253.3 31.8;" xml:space="preserve">
<style type="text/css">
	.st0{fill:#CE9C6B;}
</style>
<title>Asset 2</title>
<g id="Layer_2_1_">
	<g id="OBJECTS">
		<path class="st0" d="M126.4,13.7c-0.9,2.1-1.9,4-3,6s-2.2,3.9-3.4,5.8c-1.2,1.9-2.5,3.8-3.8,5.5c0.7-2.1,1.5-4.2,2.5-6.3
			c0.9-1.9,1.8-3.8,2.8-5.6c-3.1-0.9-6.5-1-9.7-0.3c-3.6,0.8-7,1.9-10.3,3.5c-3.4,1.6-6.8,2.9-10.4,4c-3.7,1.1-7.6,1.4-11.4,0.8
			c-3.9-0.7-7.4-3.1-9.5-6.4C69.2,19,68.6,17,68.6,15c0-2,0.7-4,2.1-5.6c0.6-0.8,1.4-1.4,2.2-2c0.8-0.6,1.7-1,2.7-1.2
			c2-0.5,4.1-0.1,5.7,1.1c1.7,1.2,2.5,3.2,2.1,5.2c-0.2,1-0.8,1.9-1.6,2.5c-0.8,0.6-1.7,0.8-2.7,0.6c0.9,0.1,1.8-0.2,2.5-0.9
			c0.7-0.6,1.1-1.4,1.2-2.3c0.2-1.7-0.7-3.4-2.2-4.3c-1.4-0.9-3.2-1.2-4.8-0.6c-1.6,0.5-3,1.5-4,2.9c-0.5,0.7-0.9,1.4-1.2,2.2
			c-0.3,0.8-0.4,1.6-0.4,2.4c0.1,1.7,0.6,3.3,1.5,4.7c1.9,2.9,4.9,4.9,8.3,5.5c3.5,0.6,7.1,0.4,10.5-0.6c3.5-1,6.9-2.3,10.3-3.7
			c3.4-1.4,7-2.4,10.7-3c3.3-0.5,6.7-0.1,9.9,1.1l0.2-0.3c1.1-2,2.2-3.9,3.4-5.8c1.2-1.9,2.5-3.8,3.9-5.5
			C128.3,9.6,127.4,11.7,126.4,13.7z M184.7,15.1c0-2-0.7-4-2.1-5.6c-0.6-0.8-1.4-1.5-2.2-2c-0.8-0.6-1.7-1-2.7-1.2
			c-2-0.5-4.1-0.1-5.7,1.1c-1.7,1.2-2.5,3.2-2.1,5.2c0.2,1,0.8,1.8,1.6,2.4c0.8,0.6,1.7,0.8,2.7,0.6c-0.9,0.1-1.8-0.2-2.5-0.9
			c-0.7-0.6-1.1-1.4-1.2-2.3c-0.2-1.7,0.7-3.4,2.2-4.3c1.4-0.9,3.2-1.2,4.8-0.6c1.6,0.5,3,1.5,4,2.9c0.5,0.7,0.9,1.4,1.2,2.2
			c0.3,0.7,0.4,1.5,0.4,2.3c-0.1,1.7-0.6,3.3-1.5,4.7c-1.9,2.9-4.9,4.8-8.4,5.5c-3.5,0.6-7.1,0.4-10.5-0.6c-3.5-1-6.9-2.2-10.3-3.6
			c-3.4-1.4-7-2.4-10.7-3c-3.2-0.4-6.4-0.1-9.5,1c0.9-1.7,1.8-3.4,2.6-5.2c1-2,1.8-4.1,2.5-6.3c-1.4,1.8-2.7,3.6-3.9,5.6
			c-1.2,1.9-2.3,3.8-3.4,5.8s-2.1,4-3,6c-0.9,2-1.8,4.1-2.5,6.2c1.4-1.8,2.7-3.6,3.9-5.5c1.2-1.9,2.3-3.8,3.4-5.8l0.3-0.6
			c3.1-0.8,6.3-0.9,9.4-0.2c3.6,0.8,7,1.9,10.3,3.5c3.4,1.6,6.8,2.9,10.4,4c3.7,1.1,7.6,1.4,11.4,0.8c3.9-0.7,7.4-3.1,9.6-6.4
			C184.1,19,184.7,17.1,184.7,15.1z M190.8,14.4c0.1-1.8-0.2-3.7-0.8-5.4c-0.6-1.7-1.6-3.3-2.8-4.7c-1.2-1.4-2.8-2.4-4.4-3.2
			c-3.3-1.5-7-1.5-10.4-0.1c3.3-0.6,6.7-0.1,9.7,1.5c2.8,1.5,5,4.1,6,7.1c1.1,3,1.1,6.3-0.1,9.3c-1.3,3.1-3.6,5.7-6.6,7.3
			c3.5-1,6.4-3.4,8-6.6C190.2,18,190.7,16.3,190.8,14.4L190.8,14.4z M246.3,9.5c-3.4-3.2-8.1-4.6-12.7-3.8c-4.3,0.9-8.4,2.7-12,5.3
			c-3.6,2.5-6.8,5.2-10.4,7.3c-7.3,4.4-15.6,6.8-24.1,7.1c8.7,0.5,17.3-1.5,24.9-5.7c3.8-2.1,7.2-4.8,10.7-7.1
			c3.3-2.4,7.2-4.1,11.2-4.9c2-0.3,4-0.3,5.9,0.3c1.9,0.5,3.7,1.5,5.1,2.9c1.4,1.3,2.3,3.1,2.5,5.1c0.2,2-0.2,3.9-1.3,5.6
			c-1.1,1.7-2.7,2.9-4.6,3.5c-1.9,0.7-4,0.6-5.8-0.3c-0.9-0.4-1.6-1.1-2.1-2c-0.5-0.9-0.7-1.9-0.5-2.9c0.4-1.9,2.3-3,4.2-2.6
			c0.2,0,0.4,0.1,0.6,0.2c-1-0.6-2.1-0.6-3.1-0.2c-1.1,0.4-1.9,1.3-2.2,2.4c-0.5,2.3,0.5,4.7,2.6,5.9c2,1.1,4.4,1.4,6.6,0.7
			c4.6-1.3,7.6-5.8,7.2-10.6C249,13.4,247.9,11.2,246.3,9.5z M251.9,8.4c-0.8-1.6-1.9-3-3.3-4.2c-1.4-1.2-2.9-2.1-4.6-2.7
			c-3.3-1.3-7-1.4-10.4-0.5c-3.3,0.9-6.4,2.6-8.9,5.1c2.8-1.7,6-2.9,9.2-3.5c3.2-0.6,6.4-0.3,9.4,0.8c3,1.1,5.5,3.1,7.2,5.8
			c1.7,2.8,2.4,6.1,1.8,9.4C253.8,15.3,253.6,11.6,251.9,8.4L251.9,8.4z M209.4,27c-3.3,1.4-6.8,2.4-10.3,3
			c-3.6,0.6-7.2,0.9-10.8,0.9c3.6,0.8,7.3,1,11,0.6c3.7-0.4,7.4-1.3,10.8-2.7c3.5-1.4,6.7-3.3,9.6-5.6c2.9-2.3,5.5-5.1,7.5-8.2
			c-2.6,2.6-5.4,4.9-8.4,7C215.9,24,212.7,25.7,209.4,27z M65.3,19c-1.2-3-1.3-6.3-0.2-9.4c1-3,3.2-5.6,6-7.1c3-1.6,6.4-2.1,9.7-1.5
			c-3.3-1.4-7.1-1.4-10.4,0.1c-1.7,0.8-3.2,1.8-4.4,3.2c-1.2,1.4-2.2,3-2.8,4.7c-0.6,1.7-0.9,3.6-0.8,5.4c0.1,1.8,0.6,3.6,1.4,5.3
			c1.6,3.2,4.5,5.6,8,6.6C69,24.7,66.6,22.1,65.3,19z M31.7,11c-3.6-2.6-7.7-4.5-12-5.3C15.1,4.8,10.4,6.3,7,9.5
			c-1.6,1.7-2.7,3.9-2.9,6.2c-0.2,2.3,0.4,4.7,1.7,6.6c1.3,1.9,3.3,3.3,5.5,4c2.2,0.7,4.6,0.4,6.7-0.7c2.1-1.2,3.1-3.6,2.6-5.9
			c-0.3-1.1-1.1-2-2.2-2.5c-1-0.5-2.2-0.4-3.1,0.2c1.8-0.8,3.8,0,4.6,1.8c0.1,0.2,0.2,0.4,0.2,0.6c0.2,1,0,2-0.5,2.9
			c-0.5,0.9-1.2,1.6-2.1,2c-1.8,0.9-3.9,1-5.8,0.3c-3.9-1.3-6.3-5.1-5.8-9.1C6.1,14,7,12.2,8.4,10.9c1.4-1.4,3.2-2.3,5.1-2.9
			c1.9-0.5,4-0.6,5.9-0.3c4.1,0.8,7.9,2.5,11.3,4.9c3.5,2.3,6.9,5,10.7,7.1c7.6,4.2,16.2,6.2,24.9,5.7c-8.5-0.3-16.8-2.7-24.1-7.1
			C38.5,16.3,35.3,13.5,31.7,11L31.7,11z M10,3.4c3-1.1,6.3-1.4,9.4-0.8c3.3,0.6,6.4,1.8,9.2,3.6c-2.5-2.5-5.5-4.2-8.9-5.1
			c-1.7-0.4-3.5-0.6-5.2-0.5c-1.8,0.1-3.5,0.5-5.2,1.1C7.6,2.2,6,3.1,4.6,4.2C3.3,5.4,2.2,6.8,1.4,8.4c-1.6,3.2-1.8,6.9-0.4,10.1
			C0.4,15.3,1,12,2.7,9.2C4.4,6.5,7,4.5,10,3.4z M43.9,27c-3.3-1.3-6.5-3-9.5-5c-3-2.1-5.8-4.4-8.4-7c2,3.1,4.5,5.9,7.5,8.2
			c2.9,2.3,6.2,4.2,9.6,5.6c3.5,1.4,7.2,2.4,10.9,2.8c3.7,0.4,7.4,0.2,11-0.6c-3.6,0-7.3-0.3-10.8-0.9C50.7,29.4,47.2,28.4,43.9,27z
			"/>
	</g>
</g>
</svg>
