<svg xmlns="http://www.w3.org/2000/svg" viewBox="0 0 161.28 154.58">
  <defs>
    <style>
      .cls-1 {
        fill: #ce9c6b;
      }
    </style>
  </defs>
  <title>Asset 1</title>
  <g id="Layer_2" data-name="Layer 2">
    <g id="Layer_1-2" data-name="Layer 1">
      <path class="cls-1" d="M160.24,21.76,138.62,10.09a6.12,6.12,0,0,0-3.17-6.24,7.56,7.56,0,0,0-9.84,3L80.08,78.5l-19-29.57c0-.16-.18-.16-.35-.32L55.3,40.14a21.27,21.27,0,0,0,7.38-16c0-12.14-10.9-22-24.26-22A25.59,25.59,0,0,0,20.49,9.45C14.34,2.26,5,.18,5,.18.28-.94-3.06,3.53,4.32,4.81c5.8,1,9.49,9.59,10.9,13.43a23.07,23.07,0,0,0-.88,6.07c0,12.15,10.9,22.06,24.26,22.06A37.57,37.57,0,0,0,43,46.05L66.72,83c0,.16.18.16.35.32l3.52,5.43L32.27,154.58h3.51l44.13-54.5L124,154.58h3.51L89.4,88.73l13.71-21.42,19,10.55a3.61,3.61,0,0,0,1.75.48,3.33,3.33,0,0,0,3-1.6,2.86,2.86,0,0,0-1.23-4.31L106.45,61.88l4.92-7.68,20.39,10.87c1.23.64,3-.16,3.87-1.6,1.06-1.59.88-3.35-.35-4L115.06,48.61l4.57-7.19L140.2,52.61c1.23.64,3-.16,3.87-1.6,1.05-1.6.88-3.36-.35-4L123.15,35.82l4.57-7.19,20.39,11c1.06.64,2.81-.16,3.87-1.6,1.05-1.6.88-3.36-.18-3.84L131.24,23l4.57-7,20.91,11.35c1.24.64,3-.16,3.87-1.6C161.65,24.15,161.47,22.4,160.24,21.76ZM38.6,37.9c-8.27,0-15-6.07-15-13.59s6.68-13.58,15-13.58S53.54,16.8,53.54,24.31,46.86,37.9,38.6,37.9ZM79.91,93.05a4.5,4.5,0,1,1,4.92-4.48A4.83,4.83,0,0,1,79.91,93.05Z"/>
    </g>
  </g>
</svg>
