<?xml version="1.0" encoding="utf-8"?>
<!-- Generator: Adobe Illustrator 24.0.0, SVG Export Plug-In . SVG Version: 6.00 Build 0)  -->
<svg version="1.1" id="Layer_1" xmlns="http://www.w3.org/2000/svg" xmlns:xlink="http://www.w3.org/1999/xlink" x="0px" y="0px"
	 viewBox="0 0 314.8 154.6" style="enable-background:new 0 0 314.8 154.6;" xml:space="preserve">
<style type="text/css">
	.st0{fill:#CE9C6B;}
</style>
<title>Asset 4</title>
<g>
	<path class="st0" d="M160.2,21.8l-21.6-11.7c0.4-2.5-0.9-5-3.2-6.2c-3.6-1.7-7.9-0.4-9.8,3L80.1,78.5l-19-29.6
		c0-0.2-0.2-0.2-0.3-0.3l-5.4-8.5c4.7-4,7.3-9.9,7.4-16c0-12.1-10.9-22-24.3-22c-6.7,0-13.1,2.6-17.9,7.3C14.3,2.3,5,0.2,5,0.2
		C0.3-0.9-3.1,3.5,4.3,4.8c5.8,1,9.5,9.6,10.9,13.4c-0.6,2-0.9,4-0.9,6.1c0,12.1,10.9,22.1,24.3,22.1c1.5,0,2.9-0.1,4.4-0.3l23.7,37
		c0,0.2,0.2,0.2,0.3,0.3l3.5,5.4l-38.3,65.8h3.5l44.1-54.5l44.1,54.5h3.5L89.4,88.7l13.7-21.4l19,10.6c0.5,0.3,1.1,0.5,1.8,0.5
		c1.2,0.1,2.4-0.6,3-1.6c0.9-1.3,0.6-3.1-0.7-4c-0.2-0.1-0.4-0.2-0.6-0.3l-19.2-10.6l4.9-7.7l20.4,10.9c1.2,0.6,3-0.2,3.9-1.6
		c1.1-1.6,0.9-3.3-0.4-4l-20.2-10.9l4.6-7.2l20.6,11.2c1.2,0.6,3-0.2,3.9-1.6c1.1-1.6,0.9-3.4-0.4-4l-20.6-11.2l4.6-7.2l20.4,11
		c1.1,0.6,2.8-0.2,3.9-1.6c1.1-1.6,0.9-3.4-0.2-3.8L131.2,23l4.6-7l20.9,11.4c1.2,0.6,3-0.2,3.9-1.6
		C161.6,24.1,161.5,22.4,160.2,21.8z M38.6,37.9c-8.3,0-15-6.1-15-13.6s6.7-13.6,15-13.6s14.9,6.1,14.9,13.6S46.9,37.9,38.6,37.9z
		 M79.9,93.1c-2.5-0.2-4.3-2.4-4.1-4.9c0.2-2.5,2.4-4.3,4.9-4.1c2.3,0.2,4.1,2.2,4.1,4.5C84.6,91.1,82.5,93.1,79.9,93.1z"/>
</g>
</svg>
