<?xml version="1.0" encoding="utf-8"?>
<!-- Generator: Adobe Illustrator 24.0.0, SVG Export Plug-In . SVG Version: 6.00 Build 0)  -->
<svg version="1.1" id="Layer_1" xmlns="http://www.w3.org/2000/svg" xmlns:xlink="http://www.w3.org/1999/xlink" x="0px" y="0px"
	 viewBox="0 0 42 58" style="enable-background:new 0 0 42 58;" xml:space="preserve">
<style type="text/css">
	.st0{fill:#CE9C6B;}
</style>
<title>Asset 1</title>
<g id="Layer_2_1_">
	<g id="Layer_1-2">
		<g>
			<path class="st0" d="M12.4,8H14V0h-1.6C9.7,0,7.2,1.6,6.1,4C7.2,6.4,9.7,8,12.4,8z"/>
			<path class="st0" d="M5,27H1c-0.6,0-1,0.4-1,1v12c0,1.7,1.3,3,3,3h3V28C6,27.4,5.6,27,5,27z"/>
			<path class="st0" d="M8,34.1c1.3-1.3,3.1-2.1,5-2.1h1c-0.2-3.5-2.3-6.6-5.4-8.1L8,23.6V8.8C7.5,8.5,7,8.2,6.5,7.8
				C4.9,9.5,4,11.7,4,14v11h1c1.7,0,3,1.3,3,3V34.1z"/>
			<polygon class="st0" points="10.9,58 17,58 17,42 8.2,42 			"/>
			<path class="st0" d="M35.9,4c-1.1-2.4-3.6-4-6.3-4H28v8h1.6C32.3,8,34.8,6.4,35.9,4z"/>
			<rect x="19" y="42" class="st0" width="4" height="16"/>
			<path class="st0" d="M19,12h4c1.7,0,3-1.3,3-3V0H16v9C16,10.7,17.3,12,19,12z"/>
			<path class="st0" d="M9,36h24c-0.9-1.3-2.4-2-4-2H13C11.4,34,9.9,34.7,9,36z"/>
			<path class="st0" d="M10,9.7v12.7c3.5,2,5.8,5.6,6,9.6h10.1c0.2-4,2.4-7.6,5.9-9.6V9.7c-0.8,0.2-1.6,0.3-2.4,0.3h-1.7
				c-0.5,2.3-2.5,4-4.9,4h-4c-2.4,0-4.4-1.7-4.9-4h-1.7C11.6,10,10.8,9.9,10,9.7z"/>
			<path class="st0" d="M41,27h-4c-0.6,0-1,0.4-1,1v15h3c1.7,0,3-1.3,3-3V28C42,27.4,41.6,27,41,27z"/>
			<path class="st0" d="M8.1,38C8,38.3,8,38.7,8,39v1h26v-1c0-0.3,0-0.7-0.1-1H8.1z"/>
			<polygon class="st0" points="25,58 31.1,58 33.8,42 25,42 			"/>
			<path class="st0" d="M38,25V14c0-2.3-0.9-4.5-2.5-6.2c-0.5,0.4-1,0.8-1.5,1.1v14.8l-0.5,0.3c-3.1,1.5-5.2,4.6-5.4,8.1h1
				c1.9,0,3.7,0.8,5,2.1V28c0-1.7,1.3-3,3-3H38z"/>
		</g>
	</g>
</g>
</svg>
