<?xml version="1.0" encoding="utf-8"?>
<!-- Generator: Adobe Illustrator 24.0.0, SVG Export Plug-In . SVG Version: 6.00 Build 0)  -->
<svg version="1.1" id="Layer_1" xmlns="http://www.w3.org/2000/svg" xmlns:xlink="http://www.w3.org/1999/xlink" x="0px" y="0px"
	 viewBox="0 0 95 92.3" style="enable-background:new 0 0 95 92.3;" xml:space="preserve">
<style type="text/css">
	.st0{fill:#CE9C6B;}
</style>
<title>Asset 1</title>
<g id="Layer_2_1_">
	<g id="Layer_1-2">
		<g>
			<path class="st0" d="M19,9.6c0-2,1.6-3.6,3.6-3.6c0,0,0,0,0,0c1,0,1.9,0.4,2.5,1.1l3.7,3.7c-2.3,4-1.8,9,1.2,12.5
				c0.3,0.4,0.8,0.4,1.2,0.1c0,0,0.1-0.1,0.1-0.1L45.6,9c0.3-0.4,0.3-0.9,0-1.3c-3.5-3-8.5-3.4-12.5-1.2l-3.7-3.7
				c-3.8-3.7-9.9-3.7-13.6,0C14,4.6,13,7.1,13,9.6v32h6V9.6z"/>
			<path class="st0" d="M41.7,32.8c0.7-0.8,0.7-1.9,0-2.7C41.1,29.5,39,29,38,28.7c-0.2-0.1-0.3,0-0.4,0.2c0,0.1,0,0.1,0,0.2
				c0.3,1.3,0.8,2.5,1.4,3.7C39.8,33.5,40.9,33.5,41.7,32.8z"/>
			<path class="st0" d="M46.1,28.3c0.7-0.8,0.7-1.9,0-2.7c-1.1-0.6-2.3-1.1-3.6-1.4c-0.2-0.1-0.3,0-0.4,0.2c0,0.1,0,0.1,0,0.2
				c0.3,1.3,0.8,2.5,1.4,3.7c0.6,0.7,1.7,0.8,2.4,0.2C46,28.4,46,28.4,46.1,28.3z"/>
			<path class="st0" d="M46.5,20.2c0.3,1.3,0.8,2.5,1.4,3.7c0.8,0.7,2,0.7,2.7-0.1c0.7-0.7,0.7-1.9,0-2.6c-0.6-0.6-2.7-1.1-3.7-1.4
				c-0.2-0.1-0.3,0-0.4,0.2C46.5,20.1,46.5,20.1,46.5,20.2z"/>
			<path class="st0" d="M55.1,19.4c0.7-0.8,0.7-1.9,0-2.7c-0.6-0.6-2.7-1.1-3.7-1.4c-0.2-0.1-0.3,0-0.4,0.2c0,0.1,0,0.1,0,0.2
				c0.3,1.3,0.8,2.5,1.4,3.7c0.7,0.7,1.8,0.8,2.6,0.1C55,19.5,55.1,19.4,55.1,19.4z"/>
			<path class="st0" d="M35.7,21.9c-0.2-0.1-0.3,0-0.4,0.2c0,0.1,0,0.1,0,0.2c0.3,1.3,0.8,2.5,1.4,3.7c0.8,0.7,1.9,0.7,2.7,0
				c0.7-0.7,0.8-1.9,0-2.7c0,0,0,0,0,0C38.2,22.7,37,22.2,35.7,21.9z"/>
			<path class="st0" d="M43.8,21.5c0.7-0.8,0.7-1.9,0-2.7c-0.6-0.6-2.7-1.1-3.7-1.4c-0.2-0.1-0.3,0-0.4,0.2c0,0.1,0,0.1,0,0.2
				c0.3,1.3,0.8,2.5,1.4,3.7c0.7,0.7,1.8,0.8,2.6,0.1C43.7,21.6,43.8,21.5,43.8,21.5z"/>
			<path class="st0" d="M44.2,13.4c0.3,1.3,0.8,2.5,1.4,3.7c0.7,0.8,1.9,0.8,2.7,0.1s0.8-1.9,0.1-2.7c0,0-0.1-0.1-0.1-0.1
				c-0.6-0.6-2.7-1.1-3.7-1.4C44.3,12.9,44.1,13.1,44.2,13.4z"/>
			<path class="st0" d="M90.7,45.9H4.3c-2.4,0-4.3,1.9-4.3,4.3c0,2.4,1.9,4.3,4.3,4.3h0.1l8.8,23.3c1.3,3.4,4.3,5.9,7.9,6.6
				l-0.8,2.1c-0.8,2.2,0.3,4.7,2.5,5.5c0.5,0.2,1,0.3,1.5,0.3c1.8,0,3.4-1.1,4-2.8l1.8-4.9h34.7l1.8,4.9c0.6,1.7,2.2,2.8,4,2.8
				c0.5,0,1-0.1,1.5-0.3c2.2-0.8,3.3-3.3,2.5-5.5l-0.8-2.1c3.6-0.7,6.6-3.2,7.9-6.6l8.8-23.3h0.2c2.4,0,4.3-1.9,4.3-4.3
				C95,47.8,93.1,45.9,90.7,45.9z"/>
		</g>
	</g>
</g>
</svg>
