<?xml version="1.0" encoding="utf-8"?>
<!-- Generator: Adobe Illustrator 24.0.0, SVG Export Plug-In . SVG Version: 6.00 Build 0)  -->
<svg version="1.1" id="Layer_1" xmlns="http://www.w3.org/2000/svg" xmlns:xlink="http://www.w3.org/1999/xlink" x="0px" y="0px"
	 viewBox="0 0 870.5 799.1" style="enable-background:new 0 0 870.5 799.1;" xml:space="preserve">
<style type="text/css">
	.st0{fill-rule:evenodd;clip-rule:evenodd;fill:#CE9C6B;}
</style>
<title>Asset 1</title>
<g id="Layer_2_1_">
	<g id="Layer_1-2">
		<path class="st0" d="M469.9,30.1c-97.7-9.5-112.2-95.3-204.3,74c0,0-116.5,45.4-126.4,110.6s3.9,91.8-27.7,121.4
			s-50.3,62.3-17.7,107.6s27.6,75-7,98.7s-50.4,52.3-24.7,95.8S74,726.1,47.3,755.7S0,799.1,0,799.1s203.4-84.9,271.4-107.6
			s70.1-67.1,38.5-134.3s-42.5-137.1,0-165.8s20.7-49.4,48.3-86.9s89.9-2.9,106.6-23.7s0-63.2,34.5-73.1s38.5,33.5,61.2,8.9
			s50.3-45.5,50.3-45.5s-23.7,83.9-1,101.7s43.4,109.6,43.4,109.6c33.3-49.4,23.6-80.5,3.9-132.2c83.3,49.9,25.2,197.7-14.8,213.2
			c-28.7,11.1-77.1,208-9.9,230c110.8,36.2,67.3-10.2,231.9,72.1c32.3-87.3-79.6-34.1-92.7-191.5c-6-71.1-35.5-78.9-43.4-104.7
			s15.7-39.5,43.4-112.5s-51.3-88.9-71.1-150c-10.1-31.4,67.7-210.1-78-134.3C658.6-28.5,519.2,0.6,469.9,30.1z"/>
	</g>
</g>
</svg>
