<?xml version="1.0" encoding="utf-8"?>
<!-- Generator: Adobe Illustrator 24.0.0, SVG Export Plug-In . SVG Version: 6.00 Build 0)  -->
<svg version="1.1" id="Layer_1" xmlns="http://www.w3.org/2000/svg" xmlns:xlink="http://www.w3.org/1999/xlink" x="0px" y="0px"
	 viewBox="0 0 462.2 461.5" style="enable-background:new 0 0 462.2 461.5;" xml:space="preserve">
<style type="text/css">
	.st0{fill:#CE9C6B;}
</style>
<title>Asset 1</title>
<g id="Layer_2_1_">
	<g id="Layer_1-2">
		<g>
			<path class="st0" d="M294,279.7c3.2,1.2,6.8-0.4,8-3.5c1.1-3-0.2-6.3-3-7.8c-13.4-6-40.3,5.5-60.9,19.6
				c-19.7,13.4-34.6,29.3-39.1,41.4c-1.2,3.2,0.5,6.8,3.7,8c0.7,0.3,1.4,0.4,2.1,0.4c2.6,0,4.9-1.6,5.8-4.1
				c2.9-7.9,14.7-21.9,34.4-35.4C269.4,281.5,288.5,277.3,294,279.7z"/>
			<path class="st0" d="M446.8,419.4c-13.1-11.6-26.4-14.8-37.6-14.1c1.1-2.1,1.8-4.4,2.1-6.7c0.6-4.2-0.6-8.4-3.3-11.6
				c-5.7-6.8-12.9-8.7-19.8-8c0.1-2.5-0.4-4.9-1.4-7.2c-2.1-5.3-5.4-8.8-9.7-10.4c-6.8-2.6-13.6,0.5-16.4,1.9l-2.6,1.2
				c-1-5.4-4.7-9.6-10.3-11.7c-5.9-2.2-12.6-1.5-16.6,1.7c-8.6,6.9-16.8,10.1-23.4,9.4c-3.1-0.3-6-1.6-8.3-3.7l11.2-7.7
				c2.8-1.9,3.6-5.8,1.6-8.6l-19.2-28.1c18.4-15.8,34.6-34.9,27.1-46.5v0l0,0l0,0l0,0l-0.1-0.1l0,0c-0.9-1.4-8.3-13.1-59.2-93.9
				c-55.3-87.9-60.3-121.4-60.7-127.2c-0.2-2-0.8-4-2-5.7l0,0L173,5c-3.6-5.2-10.7-6.6-16-3L5,105.5c-5.2,3.6-6.6,10.7-3,16
				c0,0,0,0,0,0l25.4,37.2l0,0c1.2,1.7,2.7,3,4.6,3.9c5.3,2.6,35,19.6,96.1,103c43.1,58.8,65.7,89.4,65.7,89.4l0,0
				c2.6,3.8,6.9,5.7,13,5.7c5,0,11.3-1.3,18.6-3.9c9-3.3,17.6-7.3,25.9-12.1l18.9,27.8c1.9,2.8,5.8,3.6,8.6,1.6c0,0,0,0,0,0l5.2-3.5
				c-0.4,5.9-1.3,11.7-2.8,17.4c-2.2,7.1,0.2,14.7,6,19.3c4,3.1,9,4.9,14.1,5c0,0.8,0.1,1.6,0.3,2.3c2.1,8.6,11.6,14.8,20,17.1
				c2.2,0.6,4.5,0.9,6.9,0.9h0.2c2.6,10.5,8.7,16.2,14,19c14.2,7.5,33.3,3.2,42-1.3c37.4-19.1,65.6,8.2,66.8,9.4
				c1.2,1.1,2.7,1.8,4.4,1.8c3.4,0,6.2-2.8,6.2-6.2c0-0.3,0-0.7-0.1-1C458.3,430.6,447.5,420,446.8,419.4z M184.6,44.1l-4.9,3.4
				l-21.9-32.1l4.9-3.4L184.6,44.1z M48.3,137l-21.4-31.5l6.1-4.2l21.5,31.5L48.3,137z M64.7,125.8L43.2,94.2l6.2-4.2l21.5,31.6
				L64.7,125.8z M81.1,114.6L59.6,83l6.2-4.2l21.6,31.7L81.1,114.6z M97.6,103.4L76,71.7l6.2-4.2l21.6,31.7L97.6,103.4z M114,92.2
				L92.3,60.5l6.2-4.2L120.2,88L114,92.2z M130.4,81l-21.7-31.8l6.2-4.3l21.7,31.9L130.4,81z M146.8,69.8l-21.8-31.9l6.2-4.2
				l21.8,32L146.8,69.8z M163.2,58.6l-21.8-32l6.2-4.2l21.8,32L163.2,58.6z M12,115.7l4.7-3.2l21.4,31.4l-4.1,2.8L12,115.7z
				 M204,348.1l-0.4-0.5c-0.6-0.8-7.2-9.6-65.7-89.3C87.3,189.1,57.6,164,43.6,155.1L189.1,56c3.3,15.7,15.6,52.8,61.4,125.6
				c38.9,61.8,59.3,94.1,59.3,94.1l0,0c1,4.8-13.7,25-45.7,46.7S207.9,350.5,204,348.1L204,348.1z M277,360.4l-15-22
				c3-1.9,6-3.7,8.9-5.8c3.9-2.6,8.1-5.7,12.4-9.1l15.1,22.1L277,360.4z M379.1,439.3c-5.9,3-20.9,6.5-30.6,1.4
				c-4.9-2.6-7.7-7.2-8.6-14.6c0-0.1-1.4-9.7,18.4-19.2c3-1.6,4.2-5.3,2.6-8.4c-1.5-2.9-5-4.1-8-2.8c-17.3,8.4-22.9,17.9-24.6,24.5
				c-1.1,0-2.2-0.1-3.3-0.4c-6.1-1.7-10.6-5.5-11.3-8.2c-0.1-0.4-0.3-1.3,1.3-2.8c7-6.7,9.2-8,16.3-12.4c2.4-1.5,5.3-3.4,9.1-5.8
				c2.9-1.8,3.8-5.6,2-8.5c-1.8-2.9-5.6-3.8-8.5-2c-0.1,0.1-0.2,0.1-0.3,0.2c-3.7,2.4-6.6,4.2-9,5.7c-6.2,3.7-12,8-17.1,13
				c-3.9,1.7-9.1,1.2-12.2-1.3c-2-1.6-2.6-3.7-1.9-6.4c1.6-6,2.6-12.2,3.1-18.4c2.9,1.7,6.1,2.7,9.5,3.2c10.3,1.4,21.4-2.6,33-11.9
				c1.6-0.5,3.4-0.4,4.9,0.3c1.2,0.5,1.9,1.3,2,2c0,0.3,0.2,3.1-3.3,5.9c-2.7,2.1-3.2,6-1.1,8.7c1.8,2.3,5.1,3.1,7.7,1.7
				c0,0,12.5-6.4,16.8-8.4c1.3-0.6,4.8-2.2,6.7-1.5c1.2,0.5,2.2,2.2,2.7,3.6c1.3,3.2-1,6.1-3.3,8.1c-1.6,0.9-3.2,2-4.6,3.1
				c-2.8,2-3.5,5.8-1.5,8.6c1.8,2.6,5.3,3.4,8.1,1.9c1.7-0.9,3.4-1.9,4.9-3.1c5.2-2.9,14.3-6.6,19.6-0.1c0.5,0.6,0.7,1.4,0.6,2.2
				c-0.5,4-5.8,10.4-13.3,16.3c-0.8,0.6-1.6,1.2-2.4,1.8c-2.6,2.2-3,6.1-0.8,8.7c2.1,2.5,5.7,2.9,8.4,1.1c0.5-0.4,1.1-0.8,1.7-1.3
				c5.3-3.6,24.2-14,45.7,4.9c0.1,0.1,3.7,3.8,7.1,11.9C430.9,432.4,406.9,425.1,379.1,439.3L379.1,439.3z"/>
		</g>
	</g>
</g>
</svg>
