<?xml version="1.0" encoding="utf-8"?>
<!-- Generator: Adobe Illustrator 24.0.0, SVG Export Plug-In . SVG Version: 6.00 Build 0)  -->
<svg version="1.1" id="Layer_1" xmlns="http://www.w3.org/2000/svg" xmlns:xlink="http://www.w3.org/1999/xlink" x="0px" y="0px"
	 viewBox="0 0 76.2 58.3" style="enable-background:new 0 0 76.2 58.3;" xml:space="preserve">
<style type="text/css">
	.st0{fill:#CE9C6B;}
</style>
<title>Asset 1</title>
<g id="Layer_2_1_">
	<g id="Layer_1-2">
		<path class="st0" d="M60.9,18.4C73.6,14.9,76.2,4.5,76.2,4.5c-9,7.6-15.6,6.7-15.6,6.7C69.8,9.8,70.4,0,70.4,0S58.9,8.6,40,1.7
			c-2.2-0.8-4.5-1.4-6.8-1.6c0.1,4.5,0.7,12.7,3.5,18.5c0,0-6.4-6.5-6.3-18.6c-3.3,0.1-6.5,0.9-9.5,2.4c0.5,10.4,7.3,18.9,7.3,18.9
			c-7.3-4.9-9.8-12.6-10.7-16.8c-2.6,1.8-4.8,4.1-6.6,6.8c0,0-2.5,7.6,11.3,16.2c-7.2-1.4-13-6.8-14.9-13.8c0,0-9.4,6.4-6.9,22
			s10.5,22.7,10.5,22.7s2.8-3,2.8-12.6s5.5-16,13.5-12.9s13.1-0.2,21.4-1.9s14.9,7.4,13.8,14.8c-0.6,4.5,0.9,9.1,3.9,12.6
			c5.1-29.9-6.4-31-6.4-31c11.9-0.9,15.4,9.9,15.4,9.9C76.3,22.4,68,18.8,60.9,18.4z"/>
	</g>
</g>
</svg>
