<?xml version="1.0" encoding="utf-8"?>
<!-- Generator: Adobe Illustrator 24.0.0, SVG Export Plug-In . SVG Version: 6.00 Build 0)  -->
<svg version="1.1" id="Layer_1" xmlns="http://www.w3.org/2000/svg" xmlns:xlink="http://www.w3.org/1999/xlink" x="0px" y="0px"
	 viewBox="0 0 182 308" style="enable-background:new 0 0 182 308;" xml:space="preserve">
<style type="text/css">
	.st0{fill-rule:evenodd;clip-rule:evenodd;fill:#CE9C6B;}
</style>
<title>Asset 1</title>
<g id="Layer_2_1_">
	<g id="Layer_1-2">
		<g>
			<path class="st0" d="M115,97v188c0,13-11,23-24,23l0,0c-13,0-24-10-24-23V97h16V59h16v38H115z M104,292c-8,2-17,2-17-8V113
				c-1-5,2-4,5-5c-4-1-14-1-14,4c-1,60-1,113-2,174C77,294,94,300,104,292z"/>
			<path class="st0" d="M9,0h164c5,0,9,6,9,12v24h-8V12H8v24H0V12C0,6,4,0,9,0z"/>
			<polygon class="st0" points="13,16 169,16 169,43 13,43 			"/>
			<polygon class="st0" points="13,45 169,45 169,50 13,50 			"/>
		</g>
	</g>
</g>
</svg>
