<?xml version="1.0" encoding="utf-8"?>
<!-- Generator: Adobe Illustrator 24.0.0, SVG Export Plug-In . SVG Version: 6.00 Build 0)  -->
<svg version="1.1" id="Layer_1" xmlns="http://www.w3.org/2000/svg" xmlns:xlink="http://www.w3.org/1999/xlink" x="0px" y="0px"
	 viewBox="0 0 50 75" style="enable-background:new 0 0 50 75;" xml:space="preserve">
<style type="text/css">
	.st0{fill:#CE9C6B;}
</style>
<title>Asset 1</title>
<g id="Layer_2_1_">
	<g id="Layer_1-2">
		<g>
			<path class="st0" d="M25,4c-0.6-0.9-1.6-1.6-2.7-1.8c-3.3-0.7-6.7,0.2-9.2,2.3L8.6,8.3C8.2,8.6,7.7,8.8,7.2,8.8
				C6,8.8,4.9,7.9,4.9,6.6c0,0,0,0,0,0L4.6,0.1L4.3,0L3.5,8.2c-0.2,2.1,1.3,4,3.4,4.2c0.3,0,0.5,0,0.8,0l14.1-1.5
				c1.3-0.1,2.4-0.8,3.2-1.9c0.7,1.1,1.9,1.7,3.2,1.9l14.1,1.5c2.1,0.2,4-1.3,4.3-3.4c0-0.3,0-0.5,0-0.8L45.7,0l-0.3,0.1l-0.3,6.6
				c0,1.2-1.1,2.2-2.3,2.2c-0.5,0-1-0.2-1.4-0.5L37,4.5c-2.6-2.1-5.9-3-9.2-2.3C26.7,2.4,25.7,3.1,25,4"/>
			<path class="st0" d="M25,19.5c5.9,6.4,15.8,6.9,22.2,1c0.7-0.7,1.4-1.4,2-2.2c2.3,12.1-0.4,24.6-7.5,34.7
				c-0.4-2.6-1.1-5.2-2.1-7.6c0.5,8.1-1.2,16.2-4.9,23.4c0-2.6-0.3-5.2-1-7.7c-2.2,5.1-5.1,9.8-8.7,14c-3.6-4.2-6.5-8.9-8.7-14
				c-0.7,2.5-1,5.1-1,7.7c-3.7-7.2-5.4-15.3-4.9-23.4c-1.1,2.4-1.8,5-2.1,7.6C1.2,42.9-1.5,30.4,0.8,18.3c5.2,6.9,15,8.4,21.9,3.2
				C23.6,20.9,24.3,20.2,25,19.5z"/>
		</g>
	</g>
</g>
</svg>
