<?xml version="1.0" encoding="utf-8"?>
<!-- Generator: Adobe Illustrator 24.0.0, SVG Export Plug-In . SVG Version: 6.00 Build 0)  -->
<svg version="1.1" id="Layer_1" xmlns="http://www.w3.org/2000/svg" xmlns:xlink="http://www.w3.org/1999/xlink" x="0px" y="0px"
	 viewBox="0 0 543 381" style="enable-background:new 0 0 543 381;" xml:space="preserve">
<style type="text/css">
	.st0{fill:#1F0000;}
	.st1{fill:#CE9C6B;}
</style>
<g>
	<rect y="0" class="st0" width="543" height="381"/>
	<g>
		<g>
			<path class="st1" d="M22.7,81c-2.9,5.4,7.4,5.5,5.5-0.6c-1.5-4.9-9.1-4.5-10.5,0.5c-1.1,4,0.1,9,4.5,10.3
				c12.9,4,16.4-12.8,9.4-19.7C23,63.1,18.8,49.4,30,41.4c0.3-0.3,2-0.2,1.3,0.3c-8.9,6.3-7.9,17.6-1.6,25.5c3.9,5,9.6,9.3,7.3,16.5
				c-2.8,8.9-14.7,13.1-20.5,4.1c-2.4-3.8-0.7-8.2,2.4-10.5c3.5-2.7,8.7-2.9,10.5,1.5c2.1,4.9-0.7,7.7-3.7,8c-3.1,0.3-6.4-1.7-5.1-5
				c0.1-0.3,0.3-0.5,0.6-0.8c0.4-0.3,0.8-0.4,1.1-0.6C22.8,80.4,22.9,80.6,22.7,81z"/>
		</g>
		<path class="st1" d="M23.2,29.8c-0.1-0.1,0-0.3,0.3-0.7c0.6-0.6,1.5-1,2.7-1.3c1.3-0.3,2.9-0.3,4.6-0.1c1.5,0.1,3.1,0.7,5,1.7
			c1.3,0.7,2.2,1.3,2.7,1.8c0.5,0.5,0.6,0.8,0.4,1c-0.1,0.1-0.6,0.1-1.4-0.1c-1-0.2-1.9-0.3-2.7-0.2l-0.3,0.3
			c0.1,0.3,0.3,0.8,0.7,1.3c0.3,0.4,0.3,0.6,0.2,0.8c-0.2,0.2-0.4,0.3-0.6,0.1c-0.1-0.1-0.1-0.1-0.2-0.2c-0.1-0.1-0.1-0.2-0.2-0.2
			c-2.9-2.9-5.4-4.5-7.7-4.7c-0.9-0.1-2,0.1-3.1,0.6C23.4,29.8,23.2,29.8,23.2,29.8z M28.1,41.2c-0.1-0.1-0.3-0.3-0.6-0.8
			c-0.3-0.4-0.5-0.7-0.7-0.9c-0.6-0.6-1.1-1.1-1.7-1.6c-0.6-0.6-1-0.8-1-0.8c-0.4-0.4-0.8-1-1.1-1.7c-0.3-0.7-0.6-1.4-0.7-2.2
			c-0.1-0.4-0.1-0.9-0.2-1.3c-0.1-0.3-0.1-0.5-0.3-0.8c-0.1-0.3,0-0.6,0.3-0.8c0.1-0.1,0.3-0.2,0.6-0.2c1.5,0,2.6,0.1,3.4,0.2
			c0.6,0.1,1.2,0.3,1.9,0.6c0.7,0.3,1.4,0.8,2,1.3c0.8,0.6,2.2,2,4.2,4c0.1,0.1,0.2,0.3,0.1,0.5c-0.2,0.2-0.6,0.3-1.2,0.1
			c-0.3-0.1-0.6-0.2-0.6-0.2c-0.2-0.1-0.3,0-0.4,0.1c-0.2,0.2-0.3,0.6-0.1,1c0.1,0.5,0.3,1,0.8,1.5c0.3,0.3,0.7,0.8,1,1.1
			c0.2,0.3,0.2,0.4,0.1,0.6c-0.1,0.1-0.3,0.2-0.5,0.2c-0.2-0.2-0.8-0.6-1.7-1.1c-0.6-0.3-1-0.4-1.6-0.6c-0.5-0.1-0.8,0-0.8,0.1
			c-0.1,0.1-0.1,0.4,0.1,1c0.2,0.5,0.2,0.8,0.1,1C28.8,41.6,28.4,41.6,28.1,41.2z M24.8,33.3c1,1,2.4,2.2,4.1,3.5
			c0.1,0.1,0.3,0.3,0.5,0.4c0.1,0.1,0.2,0.1,0.3,0.1c0.1-0.1-0.1-0.4-0.6-1c-0.5-0.7-1.2-1.5-2.1-2.4c-1-1-1.9-1.7-2.7-2.2
			c-0.6-0.4-1-0.6-1-0.4C23.1,31.5,23.6,32.1,24.8,33.3z M23.2,46.4c-0.1-0.1-0.3-0.4-0.6-1c-0.5-0.8-0.9-1.5-1.3-2.3
			c-0.7-1.5-1.2-3.2-1.3-5c-0.1-1.5,0-2.9,0.2-4.3c0.2-1.1,0.3-1.7,0.4-1.8c0.1-0.1,0.3-0.1,0.4,0c0.1,0.1,0.1,0.3,0.1,0.9
			c0.1,0.8,0.2,1.5,0.3,2.2c0.6,2.2,1.5,4,2.8,5.2c0.3,0.3,0.6,0.6,1,0.9c0.4,0.3,0.6,0.5,0.6,0.6c0.1,0.1,0.1,0.3,0,0.4
			c-0.1,0.1-0.3,0.1-0.8-0.1c-0.3-0.1-0.6-0.2-0.8-0.3c-0.2-0.1-0.3-0.1-0.3,0c-0.1,0.1-0.1,0.8,0,2c0.1,1.5,0,2.4-0.3,2.7
			C23.6,46.7,23.5,46.6,23.2,46.4z"/>
		<path class="st1" d="M35.2,58c0.1-2.6,2.1-3.8,4.2-3.4s5,4.3,4.2,7c-1,3.4-4.6,6-9.1,4.7c-4.5-1.3-7-6.6-7.5-9.1
			s-1.3-8.7,0.8-10.6s3.3-1.7,4.4-1c1.1,0.7,2.2,2.2,0.6,3.9c-1.7,1.7-2.2,2.9-2.6,4.1c-0.4,1.3-0.2,4.5,0.4,6.2
			c0.9,2.6,2.8,4.5,4.2,5c2.7,0.8,5.9-0.3,6.9-2.8c0.7-1.6,0.5-3-0.1-4.3c-0.3-0.8-1.2-1.3-2.2-1.5c0.1,1.4-1,2.7-2.2,2.9
			C36.4,59.3,35.2,59.3,35.2,58z"/>
		<g>
			<path class="st1" d="M73.6,30.1c5.4-2.9,5.5,7.4-0.6,5.5c-4.9-1.5-4.5-9.1,0.5-10.5c4-1.1,9,0.1,10.4,4.5
				C87.9,42.5,71,46,64.1,39C55.7,30.4,42,26.2,34,37.5c-0.3,0.3-0.2,2,0.3,1.3c6.3-8.9,17.6-7.9,25.5-1.6c5,3.9,9.3,9.6,16.5,7.3
				c8.9-2.8,13.1-14.7,4.1-20.5c-3.8-2.4-8.2-0.7-10.5,2.4c-2.7,3.5-2.9,8.7,1.5,10.5c4.9,2.1,7.7-0.7,8-3.7c0.3-3.1-1.7-6.4-5-5.1
				c-0.3,0.1-0.5,0.3-0.8,0.6c-0.3,0.4-0.4,0.8-0.6,1.1C73.1,30.2,73.2,30.3,73.6,30.1z"/>
		</g>
		<path class="st1" d="M50.6,42.6c-2.6,0.1-3.8,2.1-3.4,4.2s4.3,5,7,4.2c3.4-1,6-4.6,4.7-9.1c-1.3-4.5-6.6-7-9.1-7.5
			c-2.5-0.6-8.8-1.2-10.7,0.8c-1.9,2-1.7,3.3-1,4.4s2.2,2.2,3.9,0.6c1.7-1.7,2.9-2.2,4.1-2.6s4.5-0.2,6.2,0.4c2.6,0.9,4.5,2.8,5,4.2
			c0.8,2.7-0.3,5.9-2.8,6.9c-1.6,0.7-3,0.5-4.3-0.1c-0.8-0.3-1.3-1.2-1.5-2.2c1.4,0.1,2.7-1,2.9-2.2C51.9,43.8,51.9,42.6,50.6,42.6z
			"/>
	</g>
	<g>
		<g>
			<path class="st1" d="M74.1,352.6c5.4,2.9,5.5-7.4-0.6-5.5c-4.9,1.5-4.5,9.1,0.5,10.5c4.1,1.1,9-0.1,10.3-4.5
				c4-12.9-12.9-16.4-19.8-9.4c-8.5,8.6-22.2,12.8-30.2,1.5c-0.3-0.3-0.2-2,0.3-1.3c6.3,8.9,17.6,7.9,25.6,1.6
				c5-3.9,9.3-9.6,16.5-7.3c8.9,2.8,13.1,14.7,4.1,20.5c-3.8,2.4-8.2,0.7-10.5-2.4c-2.7-3.5-2.9-8.7,1.5-10.5c4.9-2.1,7.7,0.7,8,3.7
				c0.3,3.1-1.7,6.4-5,5.1c-0.3-0.1-0.5-0.3-0.8-0.6c-0.3-0.4-0.4-0.8-0.6-1.1C73.6,352.5,73.7,352.4,74.1,352.6z"/>
		</g>
		<path class="st1" d="M22.9,352.1c-0.1,0.1-0.3,0-0.7-0.3c-0.6-0.6-1-1.5-1.3-2.7c-0.3-1.3-0.3-2.9-0.1-4.6c0.1-1.5,0.7-3.1,1.7-5
			c0.7-1.3,1.3-2.2,1.8-2.7c0.5-0.5,0.8-0.6,1-0.4c0.1,0.1,0.1,0.6-0.1,1.4c-0.2,1-0.3,1.9-0.2,2.7l0.3,0.3c0.3-0.1,0.8-0.3,1.3-0.7
			c0.4-0.3,0.6-0.3,0.8-0.2c0.2,0.2,0.3,0.4,0.1,0.6c-0.1,0.1-0.1,0.1-0.2,0.2c-0.1,0.1-0.2,0.1-0.2,0.2c-2.9,2.9-4.5,5.4-4.8,7.7
			c-0.1,0.9,0.1,2,0.6,3.1C22.9,352,22.9,352,22.9,352.1z M34.3,347.2c-0.1,0.1-0.3,0.3-0.8,0.6c-0.4,0.3-0.7,0.5-0.9,0.7
			c-0.6,0.6-1.1,1.1-1.6,1.7c-0.6,0.6-0.8,1-0.8,1c-0.4,0.4-1,0.8-1.7,1.1c-0.7,0.3-1.4,0.6-2.2,0.7c-0.4,0.1-0.9,0.1-1.3,0.2
			c-0.3,0.1-0.5,0.1-0.8,0.3c-0.3,0.1-0.6,0-0.8-0.3c-0.1-0.1-0.2-0.3-0.2-0.6c0-1.5,0.1-2.6,0.2-3.4c0.1-0.6,0.3-1.2,0.6-1.9
			c0.3-0.7,0.8-1.4,1.3-2c0.6-0.8,2-2.2,4-4.2c0.1-0.1,0.3-0.2,0.5-0.1c0.2,0.2,0.3,0.6,0.1,1.2c-0.1,0.3-0.2,0.6-0.2,0.6
			c-0.1,0.2,0,0.3,0.1,0.4c0.2,0.2,0.6,0.3,1,0.1c0.5-0.1,1-0.3,1.5-0.8c0.3-0.3,0.8-0.7,1.1-1c0.3-0.2,0.4-0.2,0.6-0.1
			c0.1,0.1,0.2,0.3,0.2,0.5c-0.2,0.2-0.6,0.8-1.1,1.7c-0.3,0.6-0.4,1-0.6,1.6c-0.1,0.5,0,0.8,0.1,0.8c0.1,0.1,0.4,0.1,1-0.1
			c0.5-0.2,0.8-0.2,1-0.1C34.7,346.6,34.7,346.9,34.3,347.2z M26.4,350.5c1-1,2.2-2.4,3.5-4.1c0.1-0.1,0.3-0.3,0.4-0.5
			c0.1-0.1,0.1-0.2,0.1-0.3c-0.1-0.1-0.4,0.1-1,0.6c-0.7,0.5-1.5,1.2-2.4,2.1c-1,1-1.7,1.9-2.2,2.7c-0.4,0.6-0.6,1-0.4,1
			C24.5,352.2,25.2,351.7,26.4,350.5z M39.5,352.1c-0.1,0.1-0.4,0.3-1,0.6c-0.8,0.5-1.5,0.9-2.3,1.3c-1.5,0.7-3.2,1.2-5,1.3
			c-1.5,0.1-2.9,0-4.3-0.2c-1.1-0.2-1.7-0.3-1.8-0.4c-0.1-0.1-0.1-0.3,0-0.4c0.1-0.1,0.3-0.1,0.9-0.1c0.8-0.1,1.5-0.2,2.2-0.3
			c2.2-0.6,4-1.5,5.2-2.8c0.3-0.3,0.6-0.6,0.9-1c0.3-0.4,0.5-0.6,0.6-0.6c0.1-0.1,0.3-0.1,0.4,0c0.1,0.1,0.1,0.3-0.1,0.8
			c-0.1,0.3-0.2,0.6-0.3,0.8c-0.1,0.2-0.1,0.3,0,0.3c0.1,0.1,0.8,0.1,2,0c1.5-0.1,2.4,0,2.7,0.3C39.8,351.7,39.7,351.9,39.5,352.1z"
			/>
		<path class="st1" d="M51.1,340.1c-2.6-0.1-3.8-2.1-3.4-4.2c0.4-2.1,4.3-5,7-4.2c3.4,1,6,4.6,4.8,9.1c-1.3,4.5-6.6,7-9.1,7.5
			s-8.7,1.3-10.6-0.8c-1.9-2-1.7-3.3-1-4.4c0.7-1.1,2.2-2.2,3.9-0.6s2.9,2.2,4.1,2.6c1.3,0.4,4.5,0.2,6.2-0.4c2.6-0.9,4.5-2.8,5-4.2
			c0.8-2.7-0.3-5.9-2.8-6.9c-1.6-0.7-3-0.5-4.3,0.1c-0.8,0.3-1.3,1.2-1.5,2.2c1.4-0.1,2.7,1,2.9,2.2
			C52.4,338.9,52.4,340.1,51.1,340.1z"/>
		<g>
			<path class="st1" d="M23.2,301.7c-2.9-5.4,7.4-5.5,5.5,0.6c-1.5,4.9-9.1,4.5-10.5-0.5c-1.1-4.1,0.1-9,4.5-10.4
				c12.9-4,16.4,12.9,9.4,19.8c-8.6,8.5-12.8,22.2-1.5,30.2c0.3,0.3,2,0.2,1.3-0.3c-8.9-6.3-7.9-17.6-1.6-25.6
				c3.9-5,9.6-9.3,7.3-16.5c-2.8-8.9-14.7-13.1-20.5-4.1c-2.4,3.8-0.7,8.2,2.4,10.5c3.5,2.7,8.7,2.9,10.5-1.5c2.1-4.9-0.7-7.7-3.7-8
				c-3.1-0.3-6.4,1.7-5.1,5c0.1,0.3,0.3,0.5,0.6,0.8c0.4,0.3,0.8,0.4,1.1,0.6C23.3,302.2,23.4,302.1,23.2,301.7z"/>
		</g>
		<path class="st1" d="M35.7,324.6c0.1,2.6,2.1,3.8,4.2,3.4c2.1-0.4,5-4.3,4.2-7c-1-3.4-4.6-6-9.1-4.8c-4.5,1.3-7,6.6-7.5,9.1
			c-0.6,2.5-1.3,8.7,0.8,10.6c2,1.9,3.3,1.7,4.4,1c1.1-0.7,2.2-2.2,0.6-3.9s-2.2-2.9-2.6-4.1c-0.4-1.3-0.2-4.5,0.4-6.2
			c0.9-2.6,2.8-4.5,4.2-5c2.7-0.8,5.9,0.3,6.9,2.8c0.7,1.6,0.5,3-0.1,4.3c-0.3,0.8-1.2,1.3-2.2,1.5c0.1-1.4-1-2.7-2.2-2.9
			C36.9,323.4,35.7,323.4,35.7,324.6z"/>
	</g>
	<g>
		<g>
			<path class="st1" d="M519.7,301.2c2.9-5.4-7.4-5.5-5.5,0.6c1.5,4.9,9.1,4.5,10.5-0.5c1.1-4-0.1-9-4.5-10.3
				c-12.9-4-16.4,12.9-9.4,19.8c8.6,8.4,12.8,22.2,1.5,30.2c-0.3,0.3-2,0.2-1.3-0.3c8.9-6.3,7.9-17.6,1.6-25.5
				c-3.9-5-9.6-9.3-7.3-16.5c2.8-8.9,14.7-13.1,20.5-4.1c2.4,3.8,0.7,8.2-2.4,10.5c-3.5,2.7-8.7,2.9-10.5-1.5
				c-2.1-4.9,0.7-7.7,3.7-8c3.1-0.3,6.4,1.7,5.1,5c-0.1,0.3-0.3,0.5-0.6,0.8c-0.4,0.3-0.8,0.4-1.1,0.6
				C519.6,301.7,519.5,301.5,519.7,301.2z"/>
		</g>
		<path class="st1" d="M519.2,352.4c0.1,0.1,0,0.3-0.3,0.7c-0.6,0.6-1.5,1-2.7,1.3c-1.3,0.3-2.9,0.3-4.6,0.1c-1.5-0.1-3.1-0.7-5-1.7
			c-1.3-0.7-2.2-1.3-2.7-1.8c-0.5-0.5-0.6-0.8-0.4-1c0.1-0.1,0.6-0.1,1.4,0.1c1,0.2,1.9,0.3,2.7,0.2l0.3-0.3
			c-0.1-0.3-0.3-0.8-0.7-1.3c-0.3-0.4-0.3-0.6-0.2-0.8c0.2-0.2,0.4-0.3,0.6-0.1c0.1,0.1,0.1,0.1,0.2,0.2c0.1,0.1,0.1,0.2,0.2,0.2
			c2.9,2.9,5.4,4.5,7.7,4.7c0.9,0.1,2-0.1,3.1-0.6C519,352.3,519.2,352.3,519.2,352.4z M514.3,340.9c0.1,0.1,0.3,0.3,0.6,0.8
			c0.3,0.4,0.5,0.7,0.7,0.9c0.6,0.6,1.1,1.1,1.7,1.6c0.6,0.6,1,0.8,1,0.8c0.4,0.4,0.8,1,1.1,1.7c0.3,0.7,0.6,1.4,0.7,2.2
			c0.1,0.4,0.1,0.9,0.2,1.3c0.1,0.3,0.1,0.5,0.3,0.8c0.1,0.3,0,0.6-0.3,0.8c-0.1,0.1-0.3,0.2-0.6,0.2c-1.5,0-2.6-0.1-3.4-0.2
			c-0.6-0.1-1.2-0.3-1.9-0.6c-0.7-0.3-1.4-0.8-2-1.3c-0.8-0.6-2.2-2-4.2-4c-0.1-0.1-0.2-0.3-0.1-0.5c0.2-0.2,0.6-0.3,1.2-0.1
			c0.3,0.1,0.6,0.2,0.6,0.2c0.2,0.1,0.3,0,0.4-0.1c0.2-0.2,0.3-0.6,0.1-1c-0.1-0.5-0.3-1-0.8-1.5c-0.3-0.3-0.7-0.8-1-1.1
			c-0.2-0.3-0.2-0.4-0.1-0.6c0.1-0.1,0.3-0.2,0.5-0.2c0.2,0.2,0.8,0.6,1.7,1.1c0.6,0.3,1,0.4,1.6,0.6c0.5,0.1,0.8,0,0.8-0.1
			c0.1-0.1,0.1-0.4-0.1-1c-0.2-0.5-0.2-0.8-0.1-1C513.6,340.5,514,340.6,514.3,340.9z M517.6,348.9c-1-1-2.4-2.2-4.1-3.5
			c-0.1-0.1-0.3-0.3-0.5-0.4c-0.1-0.1-0.2-0.1-0.3-0.1c-0.1,0.1,0.1,0.4,0.6,1c0.5,0.7,1.2,1.5,2.1,2.4c1,1,1.9,1.7,2.7,2.2
			c0.6,0.4,1,0.6,1,0.4C519.3,350.7,518.8,350.1,517.6,348.9z M519.2,335.7c0.1,0.1,0.3,0.4,0.6,1c0.5,0.8,0.9,1.5,1.3,2.3
			c0.7,1.5,1.2,3.2,1.3,5c0.1,1.5,0,2.9-0.2,4.3c-0.2,1.1-0.3,1.7-0.4,1.8c-0.1,0.1-0.3,0.1-0.4,0c-0.1-0.1-0.1-0.3-0.1-0.9
			c-0.1-0.8-0.2-1.5-0.3-2.2c-0.6-2.2-1.5-4-2.8-5.2c-0.3-0.3-0.6-0.6-1-0.9c-0.4-0.3-0.6-0.5-0.6-0.6c-0.1-0.1-0.1-0.3,0-0.4
			c0.1-0.1,0.3-0.1,0.8,0.1c0.3,0.1,0.6,0.2,0.8,0.3c0.2,0.1,0.3,0.1,0.3,0c0.1-0.1,0.1-0.8,0-2c-0.1-1.5,0-2.4,0.3-2.7
			C518.8,335.5,518.9,335.5,519.2,335.7z"/>
		<path class="st1" d="M507.2,324.2c-0.1,2.6-2.1,3.8-4.2,3.4s-5-4.3-4.2-7c1-3.4,4.6-6,9.1-4.7c4.5,1.3,7,6.6,7.5,9.1
			s1.3,8.7-0.8,10.6c-2,1.9-3.3,1.7-4.4,1c-1.1-0.7-2.2-2.2-0.6-3.9c1.7-1.7,2.2-2.9,2.6-4.1c0.4-1.3,0.2-4.5-0.4-6.2
			c-0.9-2.6-2.8-4.5-4.2-5c-2.7-0.8-5.9,0.3-6.9,2.8c-0.7,1.6-0.5,3,0.1,4.3c0.3,0.8,1.2,1.3,2.2,1.5c-0.1-1.4,1-2.7,2.2-2.9
			C506,322.8,507.2,322.8,507.2,324.2z"/>
		<g>
			<path class="st1" d="M468.8,352c-5.4,2.9-5.5-7.4,0.6-5.5c4.9,1.5,4.5,9.1-0.5,10.5c-4,1.1-9-0.1-10.4-4.5
				c-4-12.9,12.9-16.4,19.8-9.4c8.4,8.6,22.2,12.8,30.2,1.5c0.3-0.3,0.2-2-0.3-1.3c-6.3,8.9-17.6,7.9-25.5,1.6
				c-5-3.9-9.3-9.6-16.5-7.3c-8.9,2.8-13.1,14.7-4.1,20.5c3.8,2.4,8.2,0.7,10.5-2.4c2.7-3.5,2.9-8.7-1.5-10.5
				c-4.9-2.1-7.7,0.7-8,3.7c-0.3,3.1,1.7,6.4,5,5.1c0.3-0.1,0.5-0.3,0.8-0.6c0.3-0.4,0.5-0.8,0.6-1.1
				C469.3,351.9,469.2,351.9,468.8,352z"/>
		</g>
		<path class="st1" d="M491.8,339.5c2.6-0.1,3.8-2.1,3.4-4.2c-0.4-2.1-4.3-5-7-4.2c-3.4,1-6,4.6-4.7,9.1c1.3,4.5,6.6,7,9.1,7.5
			c2.5,0.6,8.7,1.3,10.6-0.8c1.9-2,1.7-3.3,1-4.4c-0.7-1.1-2.2-2.2-3.9-0.6c-1.7,1.7-2.9,2.2-4.1,2.6c-1.3,0.4-4.5,0.2-6.2-0.4
			c-2.6-0.9-4.5-2.8-5-4.2c-0.8-2.7,0.3-5.9,2.8-6.9c1.6-0.7,3-0.5,4.3,0.1c0.8,0.3,1.3,1.2,1.5,2.2c-1.4-0.1-2.7,1-2.9,2.2
			C490.5,338.3,490.5,339.6,491.8,339.5z"/>
	</g>
	<g>
		<g>
			<path class="st1" d="M468.3,29.5c-5.4-2.9-5.5,7.4,0.6,5.5c4.9-1.5,4.5-9.1-0.5-10.5c-4.1-1.1-9,0.1-10.3,4.5
				c-4,12.9,12.9,16.4,19.8,9.4c8.5-8.6,22.2-12.8,30.2-1.5c0.3,0.3,0.2,2-0.3,1.3c-6.3-8.9-17.6-7.9-25.6-1.6
				c-5,3.9-9.3,9.6-16.5,7.3c-8.9-2.8-13.1-14.7-4.1-20.5c3.8-2.4,8.2-0.7,10.5,2.4c2.7,3.5,2.9,8.7-1.5,10.5
				c-4.9,2.1-7.7-0.7-8-3.7c-0.3-3.1,1.7-6.4,5-5.1c0.3,0.1,0.5,0.3,0.8,0.6c0.3,0.4,0.5,0.8,0.6,1.1
				C468.8,29.6,468.7,29.7,468.3,29.5z"/>
		</g>
		<path class="st1" d="M519.5,30c0.1-0.1,0.3,0,0.7,0.3c0.6,0.6,1,1.5,1.3,2.7c0.3,1.3,0.3,2.9,0.1,4.6c-0.1,1.5-0.7,3.1-1.7,5
			c-0.7,1.3-1.3,2.2-1.8,2.7c-0.5,0.5-0.8,0.6-1,0.4c-0.1-0.1-0.1-0.6,0.1-1.4c0.2-1,0.3-1.9,0.2-2.7l-0.3-0.3
			c-0.3,0.1-0.8,0.3-1.3,0.7c-0.4,0.3-0.6,0.3-0.8,0.2c-0.2-0.2-0.3-0.4-0.1-0.6c0.1-0.1,0.1-0.1,0.2-0.2c0.1-0.1,0.2-0.1,0.2-0.2
			c2.9-2.9,4.5-5.4,4.8-7.7c0.1-0.9-0.1-2-0.6-3.1C519.5,30.2,519.5,30.1,519.5,30z M508.1,34.9c0.1-0.1,0.3-0.3,0.8-0.6
			c0.4-0.3,0.7-0.5,0.9-0.7c0.6-0.6,1.1-1.1,1.6-1.7c0.6-0.6,0.8-1,0.8-1c0.4-0.4,1-0.8,1.7-1.1c0.7-0.3,1.4-0.6,2.2-0.7
			c0.4-0.1,0.9-0.1,1.3-0.2c0.3-0.1,0.5-0.1,0.8-0.3c0.3-0.1,0.6,0,0.8,0.3c0.1,0.1,0.2,0.3,0.2,0.6c0,1.5-0.1,2.6-0.2,3.4
			c-0.1,0.6-0.3,1.2-0.6,1.9c-0.3,0.7-0.8,1.4-1.3,2c-0.6,0.8-2,2.2-4,4.2c-0.1,0.1-0.3,0.2-0.5,0.1c-0.2-0.2-0.3-0.6-0.1-1.2
			c0.1-0.3,0.2-0.6,0.2-0.6c0.1-0.2,0-0.3-0.1-0.4c-0.2-0.2-0.6-0.3-1-0.1c-0.5,0.1-1,0.3-1.5,0.8c-0.3,0.3-0.8,0.7-1.1,1
			c-0.3,0.2-0.4,0.2-0.6,0.1c-0.1-0.1-0.2-0.3-0.2-0.5c0.2-0.2,0.6-0.8,1.1-1.7c0.3-0.6,0.4-1,0.6-1.6c0.1-0.5,0-0.8-0.1-0.8
			c-0.1-0.1-0.4-0.1-1,0.1c-0.5,0.2-0.8,0.2-1,0.1C507.7,35.6,507.7,35.3,508.1,34.9z M516,31.6c-1,1-2.2,2.4-3.5,4.1
			c-0.1,0.1-0.3,0.3-0.4,0.5c-0.1,0.1-0.1,0.2-0.1,0.3s0.4-0.1,1-0.6c0.7-0.5,1.5-1.2,2.4-2.1c1-1,1.7-1.9,2.2-2.7
			c0.4-0.6,0.6-1,0.4-1C517.9,29.9,517.2,30.4,516,31.6z M502.9,30.1c0.1-0.1,0.4-0.3,1-0.6c0.8-0.5,1.5-0.9,2.3-1.3
			c1.5-0.7,3.2-1.2,5-1.3c1.5-0.1,2.9,0,4.3,0.2c1.1,0.2,1.7,0.3,1.8,0.4c0.1,0.1,0.1,0.3,0,0.4c-0.1,0.1-0.3,0.1-0.9,0.1
			c-0.8,0.1-1.5,0.2-2.2,0.3c-2.2,0.6-4,1.5-5.2,2.8c-0.3,0.3-0.6,0.6-0.9,1c-0.3,0.4-0.5,0.6-0.6,0.6c-0.1,0.1-0.3,0.1-0.4,0
			c-0.1-0.1-0.1-0.3,0.1-0.8c0.1-0.3,0.2-0.6,0.3-0.8c0.1-0.2,0.1-0.3,0-0.3c-0.1-0.1-0.8-0.1-2,0c-1.5,0.1-2.4,0-2.7-0.3
			C502.6,30.4,502.7,30.3,502.9,30.1z"/>
		<path class="st1" d="M491.3,42.1c2.6,0.1,3.8,2.1,3.4,4.2c-0.4,2.1-4.3,5-7,4.2c-3.4-1-6-4.6-4.8-9.1c1.3-4.5,6.6-7,9.1-7.5
			c2.5-0.6,8.7-1.3,10.6,0.8c1.9,2,1.7,3.3,1,4.4c-0.7,1.1-2.2,2.2-3.9,0.6c-1.7-1.7-2.9-2.2-4.1-2.6s-4.5-0.2-6.2,0.4
			c-2.6,0.9-4.5,2.8-5,4.2c-0.8,2.7,0.3,5.9,2.8,6.9c1.6,0.7,3,0.5,4.3-0.1c0.8-0.3,1.3-1.2,1.5-2.2c-1.4,0.1-2.7-1-2.9-2.2
			C490,43.3,490,42,491.3,42.1z"/>
		<g>
			<path class="st1" d="M519.2,80.4c2.9,5.4-7.4,5.5-5.5-0.6c1.5-4.9,9.1-4.5,10.5,0.5c1.1,4.1-0.1,9-4.5,10.4
				c-12.9,4-16.4-12.9-9.4-19.8c8.6-8.5,12.8-22.2,1.5-30.2c-0.3-0.3-2-0.2-1.3,0.3c8.9,6.3,7.9,17.6,1.6,25.6
				c-3.9,5-9.6,9.3-7.3,16.5c2.8,8.9,14.7,13.1,20.5,4.1c2.4-3.8,0.7-8.2-2.4-10.5c-3.5-2.7-8.7-2.9-10.5,1.5
				c-2.1,4.9,0.7,7.7,3.7,8c3.1,0.3,6.4-1.7,5.1-5c-0.1-0.3-0.3-0.5-0.6-0.8c-0.4-0.3-0.8-0.4-1.1-0.6C519.1,80,519,80.1,519.2,80.4
				z"/>
		</g>
		<path class="st1" d="M506.7,57.5c-0.1-2.6-2.1-3.8-4.2-3.4c-2.1,0.4-5,4.3-4.2,7c1,3.4,4.6,6,9.1,4.8c4.5-1.3,7-6.6,7.5-9.1
			c0.6-2.5,1.3-8.7-0.8-10.6c-2-1.9-3.3-1.7-4.4-1c-1.1,0.7-2.2,2.2-0.6,3.9c1.7,1.7,2.2,2.9,2.6,4.1c0.4,1.3,0.2,4.5-0.4,6.2
			c-0.9,2.6-2.8,4.5-4.2,5c-2.7,0.8-5.9-0.3-6.9-2.8c-0.7-1.6-0.5-3,0.1-4.3c0.3-0.8,1.2-1.3,2.2-1.5c-0.1,1.4,1,2.7,2.2,2.9
			C505.5,58.8,506.7,58.7,506.7,57.5z"/>
	</g>
</g>
</svg>
