<?xml version="1.0" encoding="utf-8"?>
<!-- Generator: Adobe Illustrator 24.0.0, SVG Export Plug-In . SVG Version: 6.00 Build 0)  -->
<svg version="1.1" id="Layer_1" xmlns="http://www.w3.org/2000/svg" xmlns:xlink="http://www.w3.org/1999/xlink" x="0px" y="0px"
	 viewBox="0 0 959 357" style="enable-background:new 0 0 959 357;" xml:space="preserve">
<style type="text/css">
	.st0{fill:#1F0000;}
	.st1{fill:#CE9C6B;}
</style>
<rect x="1" y="-1" class="st0" width="957" height="358"/>
<g>
	<g>
		<path class="st1" d="M31.7,122.5c-4.2,7.7,10.6,7.9,7.9-0.8c-2.2-7-13-6.4-15,0.7c-1.6,5.8,0.1,12.9,6.4,14.8
			c18.5,5.8,23.5-18.4,13.5-28.2c-12.4-12.1-18.4-31.8-2.3-43.2c0.5-0.4,2.8-0.3,1.8,0.4c-12.7,9-11.3,25.2-2.3,36.6
			c5.6,7.1,13.7,13.3,10.5,23.6c-4,12.8-21.1,18.7-29.3,5.9c-3.5-5.5-1-11.7,3.5-15.1c5-3.8,12.4-4.2,15.1,2.1c3,7-1,11-5.3,11.5
			c-4.4,0.5-9.2-2.4-7.3-7.1c0.2-0.4,0.4-0.7,0.9-1.2c0.6-0.5,1.1-0.6,1.6-0.8C31.8,121.8,32,121.9,31.7,122.5z"/>
	</g>
	<path class="st1" d="M32.4,49.2c-0.2-0.2,0-0.5,0.4-1c0.8-0.8,2.1-1.4,3.9-1.8c1.9-0.4,4.1-0.5,6.6-0.2c2.1,0.2,4.5,1,7.1,2.5
		c1.8,1,3.1,1.9,3.8,2.6c0.7,0.7,0.8,1.1,0.6,1.4c-0.2,0.2-0.9,0.2-2-0.1c-1.5-0.3-2.7-0.4-3.8-0.3l-0.4,0.4c0.1,0.5,0.5,1.1,1,1.9
		c0.4,0.6,0.5,0.9,0.3,1.2c-0.3,0.3-0.6,0.4-0.9,0.1c-0.1-0.1-0.1-0.2-0.3-0.3c-0.1-0.2-0.2-0.3-0.3-0.3c-4.1-4.1-7.8-6.4-11-6.8
		c-1.3-0.1-2.8,0.1-4.4,0.9C32.7,49.3,32.5,49.3,32.4,49.2z M39.4,65.5c-0.2-0.2-0.4-0.5-0.8-1.1c-0.4-0.6-0.7-1-1-1.3
		c-0.8-0.8-1.6-1.6-2.5-2.3c-0.9-0.8-1.4-1.2-1.4-1.2c-0.6-0.6-1.1-1.4-1.6-2.4c-0.4-1-0.8-2-1-3.1c-0.1-0.6-0.2-1.3-0.3-1.9
		c-0.1-0.4-0.2-0.7-0.4-1.1c-0.1-0.4,0-0.8,0.4-1.1c0.2-0.2,0.5-0.3,0.8-0.3c2.1,0,3.7,0.1,4.8,0.3c0.8,0.1,1.7,0.4,2.7,0.9
		s2,1.1,2.8,1.8c1.1,0.9,3.1,2.8,6,5.7c0.2,0.2,0.3,0.5,0.1,0.7c-0.3,0.3-0.9,0.4-1.7,0.1c-0.5-0.2-0.8-0.3-0.9-0.3
		c-0.3-0.1-0.5,0-0.6,0.1c-0.3,0.3-0.4,0.8-0.2,1.5c0.1,0.7,0.5,1.4,1.2,2.2c0.5,0.5,1,1.1,1.4,1.6c0.3,0.4,0.3,0.6,0.1,0.9
		c-0.2,0.2-0.5,0.3-0.7,0.3c-0.3-0.3-1.1-0.8-2.4-1.6c-0.8-0.4-1.5-0.6-2.3-0.8c-0.7-0.1-1.1,0-1.2,0.1c-0.2,0.2-0.1,0.6,0.1,1.4
		c0.3,0.7,0.3,1.2,0.1,1.4C40.4,66.2,39.9,66,39.4,65.5z M34.7,54.3c1.4,1.4,3.4,3.1,5.9,5c0.2,0.2,0.5,0.4,0.7,0.6
		c0.2,0.1,0.3,0.2,0.4,0.1c0.1-0.1-0.1-0.6-0.8-1.4c-0.7-1-1.7-2.1-3-3.4c-1.4-1.4-2.7-2.5-3.8-3.2c-0.9-0.6-1.4-0.8-1.5-0.6
		C32.3,51.5,33,52.5,34.7,54.3z M32.5,72.9c-0.1-0.1-0.4-0.6-0.9-1.4c-0.7-1.1-1.3-2.2-1.8-3.3c-1-2.2-1.7-4.6-1.8-7.2
		c-0.1-2.1,0-4.1,0.3-6.2c0.3-1.6,0.5-2.4,0.6-2.6c0.2-0.2,0.4-0.2,0.6,0c0.1,0.1,0.1,0.5,0.2,1.3c0.1,1.1,0.3,2.2,0.5,3.2
		c0.8,3.1,2.1,5.7,4,7.5c0.4,0.4,0.9,0.8,1.5,1.3c0.6,0.4,0.9,0.7,0.9,0.8c0.2,0.2,0.2,0.4,0,0.6c-0.1,0.1-0.5,0.1-1.1-0.2
		c-0.4-0.2-0.8-0.3-1.2-0.5c-0.3-0.1-0.4-0.1-0.5,0c-0.2,0.2-0.2,1.2,0,2.9c0.2,2.1,0,3.4-0.5,3.9C33,73.3,32.8,73.3,32.5,72.9z"/>
	<path class="st1" d="M49.6,89.6c0.1-3.7,3-5.4,6-4.8s7.1,6.2,6,10c-1.4,4.8-6.6,8.6-13,6.8c-6.4-1.9-10-9.4-10.8-13
		S36,76.1,38.9,73.4c2.9-2.7,4.7-2.5,6.3-1.5s3.2,3.2,0.8,5.6s-3.1,4.1-3.7,5.9c-0.6,1.8-0.3,6.4,0.6,8.9c1.3,3.7,4,6.5,6,7.1
		c3.8,1.1,8.4-0.5,9.9-4c1-2.3,0.7-4.3-0.1-6.1c-0.5-1.1-1.7-1.9-3.1-2.1c0.2,2-1.4,3.8-3.2,4.1C51.4,91.4,49.6,91.4,49.6,89.6z"/>
	<g>
		<path class="st1" d="M104.6,49.7c7.7-4.2,7.9,10.6-0.8,7.9c-7-2.2-6.4-13,0.7-15c5.8-1.6,12.9,0.1,14.9,6.4
			c5.7,18.5-18.5,23.5-28.3,13.4C79,50.1,59.3,44.1,47.9,60.2c-0.4,0.5-0.3,2.8,0.4,1.8c9-12.7,25.2-11.3,36.6-2.3
			c7.1,5.6,13.3,13.7,23.6,10.5c12.8-4,18.7-21.1,5.9-29.4c-5.5-3.5-11.7-1-15.1,3.5c-3.8,5-4.2,12.4,2.1,15.1c7,3,11-1,11.5-5.3
			c0.5-4.4-2.4-9.2-7.1-7.3c-0.4,0.2-0.7,0.4-1.2,0.9c-0.5,0.6-0.6,1.1-0.8,1.6C103.9,49.8,104,50,104.6,49.7z"/>
	</g>
	<path class="st1" d="M71.7,67.5c-3.7,0.1-5.4,3-4.8,6s6.2,7.1,10,6c4.8-1.4,8.6-6.6,6.8-13c-1.9-6.4-9.4-10-13-10.8
		S58.1,54,55.4,57c-2.7,2.9-2.5,4.7-1.5,6.3s3.2,3.2,5.6,0.8c2.4-2.4,4.1-3.1,5.9-3.7c1.8-0.6,6.4-0.3,8.9,0.6c3.7,1.3,6.5,4,7.1,6
		c1.1,3.8-0.5,8.4-4,9.9c-2.3,1-4.3,0.7-6.1-0.1c-1.1-0.5-1.9-1.7-2.1-3.1c2,0.2,3.8-1.4,4.1-3.2C73.5,69.3,73.5,67.5,71.7,67.5z"/>
</g>
<g>
	<g>
		<path class="st1" d="M105.1,308.1c7.7,4.2,7.9-10.6-0.8-7.9c-7,2.2-6.4,13,0.7,15c5.8,1.6,12.9-0.1,14.8-6.4
			c5.7-18.5-18.5-23.5-28.3-13.4c-12.1,12.3-31.8,18.3-43.2,2.2c-0.4-0.5-0.3-2.8,0.4-1.8c9,12.7,25.2,11.3,36.6,2.3
			c7.1-5.6,13.3-13.7,23.6-10.5c12.8,4,18.7,21.1,5.9,29.3c-5.5,3.5-11.7,1-15.1-3.5c-3.8-5-4.2-12.4,2.1-15.1c7-3,11,1,11.5,5.3
			c0.5,4.4-2.4,9.2-7.1,7.3c-0.4-0.2-0.7-0.4-1.2-0.9c-0.5-0.6-0.6-1.1-0.8-1.6C104.4,308,104.6,307.8,105.1,308.1z"/>
	</g>
	<path class="st1" d="M31.8,307.4c-0.2,0.2-0.5,0-1-0.4c-0.8-0.8-1.4-2.1-1.8-3.9c-0.4-1.9-0.5-4.1-0.2-6.6c0.2-2.1,1-4.5,2.5-7.1
		c1-1.8,1.9-3.1,2.6-3.8c0.7-0.7,1.1-0.8,1.4-0.6c0.2,0.2,0.2,0.9-0.1,2c-0.3,1.5-0.4,2.7-0.3,3.8l0.4,0.4c0.5-0.1,1.1-0.5,1.9-1
		c0.6-0.4,0.9-0.5,1.2-0.3c0.3,0.3,0.4,0.6,0.1,0.9c-0.1,0.1-0.2,0.1-0.3,0.3c-0.2,0.1-0.3,0.2-0.3,0.3c-4.1,4.1-6.4,7.8-6.8,11
		c-0.1,1.3,0.1,2.8,0.9,4.4C31.9,307.2,31.9,307.3,31.8,307.4z M48.2,300.4c-0.2,0.2-0.5,0.4-1.1,0.8s-1,0.7-1.3,1
		c-0.8,0.8-1.6,1.6-2.3,2.5c-0.8,0.9-1.2,1.4-1.2,1.4c-0.6,0.6-1.4,1.1-2.4,1.6c-1,0.4-2,0.8-3.1,1c-0.6,0.1-1.3,0.2-1.9,0.3
		c-0.4,0.1-0.7,0.2-1.1,0.4c-0.4,0.1-0.8,0-1.1-0.4c-0.2-0.2-0.3-0.5-0.3-0.8c0-2.1,0.1-3.7,0.3-4.8c0.1-0.8,0.4-1.7,0.9-2.7
		s1.1-2,1.8-2.8c0.9-1.1,2.8-3.1,5.7-6c0.2-0.2,0.5-0.3,0.7-0.1c0.3,0.3,0.4,0.9,0.1,1.7c-0.2,0.5-0.3,0.8-0.3,0.9
		c-0.1,0.3,0,0.5,0.1,0.6c0.3,0.3,0.8,0.4,1.5,0.2c0.7-0.1,1.4-0.5,2.2-1.2c0.5-0.5,1.1-1,1.6-1.4c0.4-0.3,0.6-0.3,0.9-0.1
		c0.2,0.2,0.3,0.5,0.3,0.7c-0.3,0.3-0.8,1.1-1.6,2.4c-0.4,0.8-0.6,1.5-0.8,2.3c-0.1,0.7,0,1.1,0.1,1.2c0.2,0.2,0.6,0.1,1.4-0.1
		c0.7-0.3,1.2-0.3,1.4-0.1C48.8,299.5,48.7,299.9,48.2,300.4z M36.9,305.1c1.4-1.4,3.1-3.4,5-5.9c0.2-0.2,0.4-0.5,0.6-0.7
		c0.1-0.2,0.2-0.3,0.1-0.4c-0.1-0.1-0.6,0.1-1.4,0.8c-1,0.7-2.1,1.7-3.4,3c-1.4,1.4-2.5,2.7-3.2,3.8c-0.6,0.9-0.8,1.4-0.6,1.5
		C34.2,307.5,35.1,306.8,36.9,305.1z M55.6,307.4c-0.1,0.1-0.6,0.4-1.4,0.9c-1.1,0.7-2.2,1.3-3.3,1.8c-2.2,1-4.6,1.7-7.2,1.8
		c-2.1,0.1-4.1,0-6.2-0.3c-1.6-0.3-2.4-0.5-2.6-0.6c-0.2-0.2-0.2-0.4,0-0.6c0.1-0.1,0.5-0.1,1.3-0.2c1.1-0.1,2.2-0.3,3.2-0.5
		c3.1-0.8,5.7-2.1,7.5-4c0.4-0.4,0.8-0.9,1.3-1.5c0.4-0.6,0.7-0.9,0.8-0.9c0.2-0.2,0.4-0.2,0.6,0c0.1,0.1,0.1,0.5-0.2,1.1
		c-0.2,0.4-0.3,0.8-0.5,1.2c-0.1,0.3-0.1,0.4,0,0.5c0.2,0.2,1.2,0.2,2.9,0c2.1-0.2,3.4,0,3.9,0.5C56,306.8,55.9,307.1,55.6,307.4z"
		/>
	<path class="st1" d="M72.2,290.2c-3.7-0.1-5.4-3-4.8-6s6.2-7.1,10-6c4.8,1.4,8.6,6.6,6.8,13c-1.9,6.4-9.4,10-13,10.8
		s-12.5,1.8-15.2-1.1s-2.5-4.7-1.5-6.3c1-1.6,3.2-3.2,5.6-0.8c2.4,2.4,4.1,3.1,5.9,3.7s6.4,0.3,8.9-0.6c3.7-1.3,6.5-4,7.1-6
		c1.1-3.8-0.5-8.4-4-9.9c-2.3-1-4.3-0.7-6.1,0.1c-1.1,0.5-1.9,1.7-2.1,3.1c2-0.2,3.8,1.4,4.1,3.2C74.1,288.5,74.1,290.2,72.2,290.2z
		"/>
	<g>
		<path class="st1" d="M32.3,235.1c-4.2-7.7,10.6-7.9,7.9,0.8c-2.2,7-13,6.4-15-0.7c-1.6-5.8,0.1-12.9,6.4-14.9
			c18.5-5.7,23.5,18.5,13.4,28.3c-12.3,12.1-18.3,31.8-2.2,43.2c0.5,0.4,2.8,0.3,1.8-0.4c-12.7-9-11.3-25.2-2.3-36.6
			c5.6-7.1,13.7-13.3,10.5-23.6c-4-12.8-21.1-18.7-29.4-5.9c-3.5,5.5-1,11.7,3.5,15.1c5,3.8,12.4,4.2,15.1-2.1c3-7-1-11-5.3-11.5
			c-4.4-0.5-9.2,2.4-7.3,7.1c0.2,0.4,0.4,0.7,0.9,1.2c0.6,0.5,1.1,0.6,1.6,0.8C32.4,235.9,32.6,235.8,32.3,235.1z"/>
	</g>
	<path class="st1" d="M50.2,268.1c0.1,3.7,3,5.4,6,4.8c3-0.6,7.1-6.2,6-10c-1.4-4.8-6.6-8.6-13-6.8c-6.4,1.9-10,9.4-10.8,13
		s-1.8,12.5,1.1,15.2c2.9,2.7,4.7,2.5,6.3,1.5s3.2-3.2,0.8-5.6s-3.1-4.1-3.7-5.9c-0.6-1.8-0.3-6.4,0.6-8.9c1.3-3.7,4-6.5,6-7.1
		c3.8-1.1,8.4,0.5,9.9,4c1,2.3,0.7,4.3-0.1,6.1c-0.5,1.1-1.7,1.9-3.1,2.1c0.2-2-1.4-3.8-3.2-4.1C51.9,266.3,50.2,266.3,50.2,268.1z"
		/>
</g>
<g>
	<g>
		<path class="st1" d="M926.7,234.6c4.2-7.7-10.6-7.9-7.9,0.8c2.2,7,13,6.4,15-0.7c1.6-5.8-0.1-12.9-6.4-14.8
			c-18.5-5.7-23.5,18.5-13.4,28.3c12.3,12.1,18.3,31.8,2.2,43.2c-0.5,0.4-2.8,0.3-1.8-0.4c12.7-9,11.3-25.2,2.3-36.6
			c-5.6-7.1-13.7-13.3-10.5-23.6c4-12.8,21.1-18.7,29.3-5.9c3.5,5.5,1,11.7-3.5,15.1c-5,3.8-12.4,4.2-15.1-2.1c-3-7,1-11,5.3-11.5
			c4.4-0.5,9.2,2.4,7.3,7.1c-0.2,0.4-0.4,0.7-0.9,1.2c-0.6,0.5-1.1,0.6-1.6,0.8C926.6,235.3,926.4,235.1,926.7,234.6z"/>
	</g>
	<path class="st1" d="M926,308c0.2,0.2,0,0.5-0.4,1c-0.8,0.8-2.1,1.4-3.9,1.8c-1.9,0.4-4.1,0.5-6.6,0.2c-2.1-0.2-4.5-1-7.1-2.5
		c-1.8-1-3.1-1.9-3.8-2.6c-0.7-0.7-0.8-1.1-0.6-1.4c0.2-0.2,0.9-0.2,2,0.1c1.5,0.3,2.7,0.4,3.8,0.3l0.4-0.4c-0.1-0.5-0.5-1.1-1-1.9
		c-0.4-0.6-0.5-0.9-0.3-1.2c0.3-0.3,0.6-0.4,0.9-0.1c0.1,0.1,0.1,0.2,0.3,0.3c0.1,0.2,0.2,0.3,0.3,0.3c4.1,4.1,7.8,6.4,11,6.8
		c1.3,0.1,2.8-0.1,4.4-0.9C925.7,307.9,925.9,307.9,926,308z M919,291.6c0.2,0.2,0.4,0.5,0.8,1.1s0.7,1,1,1.3
		c0.8,0.8,1.6,1.6,2.5,2.3c0.9,0.8,1.4,1.2,1.4,1.2c0.6,0.6,1.1,1.4,1.6,2.4c0.4,1,0.8,2,1,3.1c0.1,0.6,0.2,1.3,0.3,1.9
		c0.1,0.4,0.2,0.7,0.4,1.1c0.1,0.4,0,0.8-0.4,1.1c-0.2,0.2-0.5,0.3-0.8,0.3c-2.1,0-3.7-0.1-4.8-0.3c-0.8-0.1-1.7-0.4-2.7-0.9
		s-2-1.1-2.8-1.8c-1.1-0.9-3.1-2.8-6-5.7c-0.2-0.2-0.3-0.5-0.1-0.7c0.3-0.3,0.9-0.4,1.7-0.1c0.5,0.2,0.8,0.3,0.9,0.3
		c0.3,0.1,0.5,0,0.6-0.1c0.3-0.3,0.4-0.8,0.2-1.5c-0.1-0.7-0.5-1.4-1.2-2.2c-0.5-0.5-1-1.1-1.4-1.6c-0.3-0.4-0.3-0.6-0.1-0.9
		c0.2-0.2,0.5-0.3,0.7-0.3c0.3,0.3,1.1,0.8,2.4,1.6c0.8,0.4,1.5,0.6,2.3,0.8c0.7,0.1,1.1,0,1.2-0.1c0.2-0.2,0.1-0.6-0.1-1.4
		c-0.3-0.7-0.3-1.2-0.1-1.4C918,291,918.5,291.1,919,291.6z M923.7,303c-1.4-1.4-3.4-3.1-5.9-5c-0.2-0.2-0.5-0.4-0.7-0.6
		c-0.2-0.1-0.3-0.2-0.4-0.1s0.1,0.6,0.8,1.4c0.7,1,1.7,2.1,3,3.4c1.4,1.4,2.7,2.5,3.8,3.2c0.9,0.6,1.4,0.8,1.5,0.6
		C926.1,305.7,925.4,304.7,923.7,303z M925.9,284.2c0.1,0.1,0.4,0.6,0.9,1.4c0.7,1.1,1.3,2.2,1.8,3.3c1,2.2,1.7,4.6,1.8,7.2
		c0.1,2.1,0,4.1-0.3,6.2c-0.3,1.6-0.5,2.4-0.6,2.6c-0.2,0.2-0.4,0.2-0.6,0c-0.1-0.1-0.2-0.5-0.2-1.3c-0.1-1.1-0.3-2.2-0.5-3.2
		c-0.8-3.1-2.1-5.7-4-7.5c-0.4-0.4-0.9-0.8-1.5-1.3c-0.6-0.4-0.9-0.7-0.9-0.8c-0.2-0.2-0.2-0.4,0-0.6c0.1-0.1,0.5-0.1,1.1,0.2
		c0.4,0.2,0.8,0.3,1.2,0.5c0.3,0.1,0.4,0.1,0.5,0c0.2-0.2,0.2-1.2,0-2.9c-0.2-2.1,0-3.4,0.5-3.9
		C925.4,283.9,925.6,283.9,925.9,284.2z"/>
	<path class="st1" d="M908.8,267.6c-0.1,3.7-3,5.4-6,4.8s-7.1-6.2-6-10c1.4-4.8,6.6-8.6,13-6.8c6.4,1.9,10,9.4,10.8,13
		s1.8,12.5-1.1,15.2s-4.7,2.5-6.3,1.5c-1.6-1-3.2-3.2-0.8-5.6c2.4-2.4,3.1-4.1,3.7-5.9s0.3-6.4-0.6-8.9c-1.3-3.7-4-6.5-6-7.1
		c-3.8-1.1-8.4,0.5-9.9,4c-1,2.3-0.7,4.3,0.1,6.1c0.5,1.1,1.7,1.9,3.1,2.1c-0.2-2,1.4-3.8,3.2-4.1
		C907,265.6,908.8,265.6,908.8,267.6z"/>
	<g>
		<path class="st1" d="M853.8,307.5c-7.7,4.2-7.9-10.6,0.8-7.9c7,2.2,6.4,13-0.7,15c-5.8,1.6-12.9-0.1-14.9-6.4
			c-5.7-18.5,18.5-23.5,28.3-13.4c12.1,12.3,31.8,18.3,43.2,2.2c0.4-0.5,0.3-2.8-0.4-1.8c-9,12.7-25.2,11.3-36.6,2.3
			c-7.1-5.6-13.3-13.7-23.6-10.5c-12.8,4-18.7,21.1-5.9,29.4c5.5,3.5,11.7,1,15.1-3.5c3.8-5,4.2-12.4-2.1-15.1c-7-3-11,1-11.5,5.3
			c-0.5,4.4,2.4,9.2,7.1,7.3c0.4-0.2,0.7-0.4,1.2-0.9c0.5-0.6,0.7-1.1,0.8-1.6C854.5,307.4,854.4,307.3,853.8,307.5z"/>
	</g>
	<path class="st1" d="M886.7,289.6c3.7-0.1,5.4-3,4.8-6s-6.2-7.1-10-6c-4.8,1.4-8.6,6.6-6.8,13c1.9,6.4,9.4,10,13,10.8
		s12.5,1.8,15.2-1.1s2.5-4.7,1.5-6.3c-1-1.6-3.2-3.2-5.6-0.8c-2.4,2.4-4.1,3.1-5.9,3.7s-6.4,0.3-8.9-0.6c-3.7-1.3-6.5-4-7.1-6
		c-1.1-3.8,0.5-8.4,4-9.9c2.3-1,4.3-0.7,6.1,0.1c1.1,0.5,1.9,1.7,2.1,3.1c-2-0.2-3.8,1.4-4.1,3.2
		C884.9,287.9,884.9,289.7,886.7,289.6z"/>
</g>
<g>
	<g>
		<path class="st1" d="M853.3,49c-7.7-4.2-7.9,10.6,0.8,7.9c7-2.2,6.4-13-0.7-15c-5.8-1.6-12.9,0.1-14.8,6.4
			c-5.7,18.5,18.5,23.5,28.3,13.4c12.1-12.3,31.8-18.3,43.2-2.2c0.4,0.5,0.3,2.8-0.4,1.8c-9-12.7-25.2-11.3-36.6-2.3
			c-7.1,5.6-13.3,13.7-23.6,10.5c-12.8-4-18.7-21.1-5.9-29.3c5.5-3.5,11.7-1,15.1,3.5c3.8,5,4.2,12.4-2.1,15.1c-7,3-11-1-11.5-5.3
			c-0.5-4.4,2.4-9.2,7.1-7.3c0.4,0.2,0.7,0.4,1.2,0.9c0.5,0.6,0.7,1.1,0.8,1.6C854,49.2,853.8,49.4,853.3,49z"/>
	</g>
	<path class="st1" d="M926.6,49.8c0.2-0.2,0.5,0,1,0.4c0.8,0.8,1.4,2.1,1.8,3.9c0.4,1.9,0.5,4.1,0.2,6.6c-0.2,2.1-1,4.5-2.5,7.1
		c-1,1.8-1.9,3.1-2.6,3.8c-0.7,0.7-1.1,0.8-1.4,0.6c-0.2-0.2-0.2-0.9,0.1-2c0.3-1.5,0.4-2.7,0.3-3.8l-0.4-0.4
		c-0.5,0.1-1.1,0.5-1.9,1c-0.6,0.4-0.9,0.5-1.2,0.3c-0.3-0.3-0.4-0.6-0.1-0.9c0.1-0.1,0.2-0.1,0.3-0.3c0.2-0.1,0.3-0.2,0.3-0.3
		c4.1-4.1,6.4-7.8,6.8-11c0.1-1.3-0.1-2.8-0.9-4.4C926.5,50,926.5,49.9,926.6,49.8z M910.2,56.8c0.2-0.2,0.5-0.4,1.1-0.8
		c0.6-0.4,1-0.7,1.3-1c0.8-0.8,1.6-1.6,2.3-2.5c0.8-0.9,1.2-1.4,1.2-1.4c0.6-0.6,1.4-1.1,2.4-1.6c1-0.4,2-0.8,3.1-1
		c0.6-0.1,1.3-0.2,1.9-0.3c0.4-0.1,0.7-0.2,1.1-0.4c0.4-0.1,0.8,0,1.1,0.4c0.2,0.2,0.3,0.5,0.3,0.8c0,2.1-0.1,3.7-0.3,4.8
		c-0.1,0.8-0.4,1.7-0.9,2.7s-1.1,2-1.8,2.8c-0.9,1.1-2.8,3.1-5.7,6c-0.2,0.2-0.5,0.3-0.7,0.1c-0.3-0.3-0.4-0.9-0.1-1.7
		c0.2-0.5,0.3-0.8,0.3-0.9c0.1-0.3,0-0.5-0.1-0.6c-0.3-0.3-0.8-0.4-1.5-0.2c-0.7,0.1-1.4,0.5-2.2,1.2c-0.5,0.5-1.1,1-1.6,1.4
		c-0.4,0.3-0.6,0.3-0.9,0.1c-0.2-0.2-0.3-0.5-0.3-0.7c0.3-0.3,0.8-1.1,1.6-2.4c0.4-0.8,0.6-1.5,0.8-2.3c0.1-0.7,0-1.1-0.1-1.2
		c-0.2-0.2-0.6-0.1-1.4,0.1c-0.7,0.3-1.2,0.3-1.4,0.1C909.6,57.8,909.7,57.4,910.2,56.8z M921.5,52c-1.4,1.4-3.1,3.4-5,5.9
		c-0.2,0.2-0.4,0.5-0.6,0.7c-0.1,0.2-0.2,0.3-0.1,0.4c0.1,0.1,0.6-0.1,1.4-0.8c1-0.7,2.1-1.7,3.4-3c1.4-1.4,2.5-2.7,3.2-3.8
		c0.6-0.9,0.8-1.4,0.6-1.5C924.3,49.7,923.3,50.4,921.5,52z M902.8,49.9c0.1-0.1,0.6-0.4,1.4-0.9c1.1-0.7,2.2-1.3,3.3-1.8
		c2.2-1,4.6-1.7,7.2-1.8c2.1-0.1,4.1,0,6.2,0.3c1.6,0.3,2.4,0.5,2.6,0.6c0.2,0.2,0.2,0.4,0,0.6c-0.1,0.1-0.5,0.1-1.3,0.2
		c-1.1,0.1-2.2,0.3-3.2,0.5c-3.1,0.8-5.7,2.1-7.5,4c-0.4,0.4-0.8,0.9-1.3,1.5c-0.4,0.6-0.7,0.9-0.8,0.9c-0.2,0.2-0.4,0.2-0.6,0
		c-0.1-0.1-0.1-0.5,0.2-1.1c0.2-0.4,0.3-0.8,0.5-1.2c0.1-0.3,0.1-0.4,0-0.5c-0.2-0.2-1.2-0.2-2.9,0c-2.1,0.2-3.4,0-3.9-0.5
		C902.4,50.4,902.5,50.2,902.8,49.9z"/>
	<path class="st1" d="M886.2,67c3.7,0.1,5.4,3,4.8,6s-6.2,7.1-10,6c-4.8-1.4-8.6-6.6-6.8-13c1.9-6.4,9.4-10,13-10.8
		s12.5-1.8,15.2,1.1c2.7,2.9,2.5,4.7,1.5,6.3c-1,1.6-3.2,3.2-5.6,0.8s-4.1-3.1-5.9-3.7c-1.8-0.6-6.4-0.3-8.9,0.6
		c-3.7,1.3-6.5,4-7.1,6c-1.1,3.8,0.5,8.4,4,9.9c2.3,1,4.3,0.7,6.1-0.1c1.1-0.5,1.9-1.7,2.1-3.1c-2,0.2-3.8-1.4-4.1-3.2
		C884.3,68.8,884.3,66.9,886.2,67z"/>
	<g>
		<path class="st1" d="M926.1,121.9c4.2,7.7-10.6,7.9-7.9-0.8c2.2-7,13-6.4,15,0.7c1.6,5.8-0.1,12.9-6.4,14.9
			c-18.5,5.7-23.5-18.5-13.4-28.3c12.3-12.1,18.3-31.8,2.2-43.2c-0.5-0.4-2.8-0.3-1.8,0.4c12.7,9,11.3,25.2,2.3,36.6
			c-5.6,7.1-13.7,13.3-10.5,23.6c4,12.8,21.1,18.7,29.4,5.9c3.5-5.5,1-11.7-3.5-15.1c-5-3.8-12.4-4.2-15.1,2.1c-3,7,1,11,5.3,11.5
			c4.4,0.5,9.2-2.4,7.3-7.1c-0.2-0.4-0.4-0.7-0.9-1.2c-0.6-0.5-1.1-0.6-1.6-0.8C926,121.3,925.8,121.4,926.1,121.9z"/>
	</g>
	<path class="st1" d="M908.2,89c-0.1-3.7-3-5.4-6-4.8s-7.1,6.2-6,10c1.4,4.8,6.6,8.6,13,6.8c6.4-1.9,10-9.4,10.8-13
		s1.8-12.5-1.1-15.2c-2.9-2.7-4.7-2.5-6.3-1.5c-1.6,1-3.2,3.2-0.8,5.6c2.4,2.4,3.1,4.1,3.7,5.9s0.3,6.4-0.6,8.9
		c-1.3,3.7-4,6.5-6,7.1c-3.8,1.1-8.4-0.5-9.9-4c-1-2.3-0.7-4.3,0.1-6.1c0.5-1.1,1.7-1.9,3.1-2.1c-0.2,2,1.4,3.8,3.2,4.1
		C906.5,90.9,908.2,90.8,908.2,89z"/>
</g>
</svg>
