<?xml version="1.0" encoding="utf-8"?>
<!-- Generator: Adobe Illustrator 24.0.0, SVG Export Plug-In . SVG Version: 6.00 Build 0)  -->
<svg version="1.1" id="Layer_1" xmlns="http://www.w3.org/2000/svg" xmlns:xlink="http://www.w3.org/1999/xlink" x="0px" y="0px"
	 viewBox="0 0 735 381" style="enable-background:new 0 0 735 381;" xml:space="preserve">
<style type="text/css">
	.st0{fill:#1F0000;}
	.st1{fill:#CE9C6B;}
</style>
<g>
	<rect y="0" class="st0" width="735" height="381"/>
	<g>
		<g>
			<path class="st1" d="M29.7,113c-4.2,7.7,10.6,7.9,7.9-0.8c-2.2-7-13-6.4-15,0.7c-1.6,5.8,0.1,12.9,6.4,14.8
				c18.5,5.8,23.5-18.4,13.5-28.2c-12.4-12.1-18.4-31.8-2.3-43.2c0.5-0.4,2.8-0.3,1.8,0.4c-12.7,9-11.3,25.2-2.3,36.6
				c5.6,7.1,13.7,13.3,10.5,23.6c-4,12.8-21.1,18.7-29.3,5.9c-3.5-5.5-1-11.7,3.5-15.1c5-3.8,12.4-4.2,15.1,2.1c3,7-1,11-5.3,11.5
				c-4.4,0.5-9.2-2.4-7.3-7.1c0.2-0.4,0.4-0.7,0.9-1.2c0.6-0.5,1.1-0.6,1.6-0.8C29.8,112.3,30,112.4,29.7,113z"/>
		</g>
		<path class="st1" d="M30.4,39.7c-0.2-0.2,0-0.5,0.4-1c0.8-0.8,2.1-1.4,3.9-1.8c1.9-0.4,4.1-0.5,6.6-0.2c2.1,0.2,4.5,1,7.1,2.5
			c1.8,1,3.1,1.9,3.8,2.6c0.7,0.7,0.8,1.1,0.6,1.4c-0.2,0.2-0.9,0.2-2-0.1c-1.5-0.3-2.7-0.4-3.8-0.3l-0.4,0.4c0.1,0.5,0.5,1.1,1,1.9
			c0.4,0.6,0.5,0.9,0.3,1.2c-0.3,0.3-0.6,0.4-0.9,0.1c-0.1-0.1-0.1-0.2-0.3-0.3c-0.1-0.2-0.2-0.3-0.3-0.3c-4.1-4.1-7.8-6.4-11-6.8
			c-1.3-0.1-2.8,0.1-4.4,0.9C30.7,39.8,30.5,39.8,30.4,39.7z M37.4,56c-0.2-0.2-0.4-0.5-0.8-1.1c-0.4-0.6-0.7-1-1-1.3
			c-0.8-0.8-1.6-1.6-2.5-2.3c-0.9-0.8-1.4-1.2-1.4-1.2c-0.6-0.6-1.1-1.4-1.6-2.4c-0.4-1-0.8-2-1-3.1c-0.1-0.6-0.2-1.3-0.3-1.9
			c-0.1-0.4-0.2-0.7-0.4-1.1c-0.1-0.4,0-0.8,0.4-1.1c0.2-0.2,0.5-0.3,0.8-0.3c2.1,0,3.7,0.1,4.8,0.3c0.8,0.1,1.7,0.4,2.7,0.9
			s2,1.1,2.8,1.8c1.1,0.9,3.1,2.8,6,5.7c0.2,0.2,0.3,0.5,0.1,0.7c-0.3,0.3-0.9,0.4-1.7,0.1c-0.5-0.2-0.8-0.3-0.9-0.3
			c-0.3-0.1-0.5,0-0.6,0.1c-0.3,0.3-0.4,0.8-0.2,1.5c0.1,0.7,0.5,1.4,1.2,2.2c0.5,0.5,1,1.1,1.4,1.6c0.3,0.4,0.3,0.6,0.1,0.9
			c-0.2,0.2-0.5,0.3-0.7,0.3c-0.3-0.3-1.1-0.8-2.4-1.6c-0.8-0.4-1.5-0.6-2.3-0.8c-0.7-0.1-1.1,0-1.2,0.1c-0.2,0.2-0.1,0.6,0.1,1.4
			c0.3,0.7,0.3,1.2,0.1,1.4C38.4,56.7,37.9,56.5,37.4,56z M32.7,44.8c1.4,1.4,3.4,3.1,5.9,5c0.2,0.2,0.5,0.4,0.7,0.6
			c0.2,0.1,0.3,0.2,0.4,0.1c0.1-0.1-0.1-0.6-0.8-1.4c-0.7-1-1.7-2.1-3-3.4c-1.4-1.4-2.7-2.5-3.8-3.2c-0.9-0.6-1.4-0.8-1.5-0.6
			C30.3,42,31,43,32.7,44.8z M30.5,63.5c-0.1-0.1-0.4-0.6-0.9-1.4c-0.7-1.1-1.3-2.2-1.8-3.3c-1-2.2-1.7-4.6-1.8-7.2
			c-0.1-2.1,0-4.1,0.3-6.2c0.3-1.6,0.5-2.4,0.6-2.6c0.2-0.2,0.4-0.2,0.6,0c0.1,0.1,0.1,0.5,0.2,1.3c0.1,1.1,0.3,2.2,0.5,3.2
			c0.8,3.1,2.1,5.7,4,7.5c0.4,0.4,0.9,0.8,1.5,1.3c0.6,0.4,0.9,0.7,0.9,0.8c0.2,0.2,0.2,0.4,0,0.6c-0.1,0.1-0.5,0.1-1.1-0.2
			c-0.4-0.2-0.8-0.3-1.2-0.5c-0.3-0.1-0.4-0.1-0.5,0c-0.2,0.2-0.2,1.2,0,2.9c0.2,2.1,0,3.4-0.5,3.9C31,63.9,30.8,63.8,30.5,63.5z"/>
		<path class="st1" d="M47.6,80.1c0.1-3.7,3-5.4,6-4.8s7.1,6.2,6,10c-1.4,4.8-6.6,8.6-13,6.8c-6.4-1.9-10-9.4-10.8-13
			S34,66.6,36.9,63.9c2.9-2.7,4.7-2.5,6.3-1.5s3.2,3.2,0.8,5.6s-3.1,4.1-3.7,5.9c-0.6,1.8-0.3,6.4,0.6,8.9c1.3,3.7,4,6.5,6,7.1
			c3.8,1.1,8.4-0.5,9.9-4c1-2.3,0.7-4.3-0.1-6.1c-0.5-1.1-1.7-1.9-3.1-2.1c0.2,2-1.4,3.8-3.2,4.1C49.4,81.9,47.6,81.9,47.6,80.1z"/>
		<g>
			<path class="st1" d="M102.6,40.2c7.7-4.2,7.9,10.6-0.8,7.9c-7-2.2-6.4-13,0.7-15c5.8-1.6,12.9,0.1,14.9,6.4
				C123.1,58,98.9,63,89.1,52.9C77,40.6,57.3,34.6,45.9,50.7c-0.4,0.5-0.3,2.8,0.4,1.8c9-12.7,25.2-11.3,36.6-2.3
				c7.1,5.6,13.3,13.7,23.6,10.5c12.8-4,18.7-21.1,5.9-29.4c-5.5-3.5-11.7-1-15.1,3.5c-3.8,5-4.2,12.4,2.1,15.1c7,3,11-1,11.5-5.3
				c0.5-4.4-2.4-9.2-7.1-7.3c-0.4,0.2-0.7,0.4-1.2,0.9c-0.5,0.6-0.6,1.1-0.8,1.6C101.9,40.3,102,40.5,102.6,40.2z"/>
		</g>
		<path class="st1" d="M69.7,58c-3.7,0.1-5.4,3-4.8,6c0.6,3,6.2,7.1,10,6c4.8-1.4,8.6-6.6,6.8-13c-1.9-6.4-9.4-10-13-10.8
			s-12.6-1.7-15.3,1.2c-2.7,2.9-2.5,4.7-1.5,6.3s3.2,3.2,5.6,0.8c2.4-2.4,4.1-3.1,5.9-3.7c1.8-0.6,6.4-0.3,8.9,0.6
			c3.7,1.3,6.5,4,7.1,6c1.1,3.8-0.5,8.4-4,9.9c-2.3,1-4.3,0.7-6.1-0.1c-1.1-0.5-1.9-1.7-2.1-3.1c2,0.2,3.8-1.4,4.1-3.2
			C71.5,59.8,71.5,58,69.7,58z"/>
	</g>
	<g>
		<g>
			<path class="st1" d="M103.1,342.6c7.7,4.2,7.9-10.6-0.8-7.9c-7,2.2-6.4,13,0.7,15c5.8,1.6,12.9-0.1,14.8-6.4
				c5.7-18.5-18.5-23.5-28.3-13.4c-12.1,12.3-31.8,18.3-43.2,2.2c-0.4-0.5-0.3-2.8,0.4-1.8c9,12.7,25.2,11.3,36.6,2.3
				c7.1-5.6,13.3-13.7,23.6-10.5c12.8,4,18.7,21.1,5.9,29.3c-5.5,3.5-11.7,1-15.1-3.5c-3.8-5-4.2-12.4,2.1-15.1c7-3,11,1,11.5,5.3
				c0.5,4.4-2.4,9.2-7.1,7.3c-0.4-0.2-0.7-0.4-1.2-0.9c-0.5-0.6-0.6-1.1-0.8-1.6C102.4,342.5,102.6,342.3,103.1,342.6z"/>
		</g>
		<path class="st1" d="M29.8,341.9c-0.2,0.2-0.5,0-1-0.4c-0.8-0.8-1.4-2.1-1.8-3.9c-0.4-1.9-0.5-4.1-0.2-6.6c0.2-2.1,1-4.5,2.5-7.1
			c1-1.8,1.9-3.1,2.6-3.8c0.7-0.7,1.1-0.8,1.4-0.6c0.2,0.2,0.2,0.9-0.1,2c-0.3,1.5-0.4,2.7-0.3,3.8l0.4,0.4c0.5-0.1,1.1-0.5,1.9-1
			c0.6-0.4,0.9-0.5,1.2-0.3c0.3,0.3,0.4,0.6,0.1,0.9c-0.1,0.1-0.2,0.1-0.3,0.3c-0.2,0.1-0.3,0.2-0.3,0.3c-4.1,4.1-6.4,7.8-6.8,11
			c-0.1,1.3,0.1,2.8,0.9,4.4C29.9,341.7,29.9,341.8,29.8,341.9z M46.2,334.9c-0.2,0.2-0.5,0.4-1.1,0.8s-1,0.7-1.3,1
			c-0.8,0.8-1.6,1.6-2.3,2.5c-0.8,0.9-1.2,1.4-1.2,1.4c-0.6,0.6-1.4,1.1-2.4,1.6c-1,0.4-2,0.8-3.1,1c-0.6,0.1-1.3,0.2-1.9,0.3
			c-0.4,0.1-0.7,0.2-1.1,0.4c-0.4,0.1-0.8,0-1.1-0.4c-0.2-0.2-0.3-0.5-0.3-0.8c0-2.1,0.1-3.7,0.3-4.8c0.1-0.8,0.4-1.7,0.9-2.7
			s1.1-2,1.8-2.8c0.9-1.1,2.8-3.1,5.7-6c0.2-0.2,0.5-0.3,0.7-0.1c0.3,0.3,0.4,0.9,0.1,1.7c-0.2,0.5-0.3,0.8-0.3,0.9
			c-0.1,0.3,0,0.5,0.1,0.6c0.3,0.3,0.8,0.4,1.5,0.2c0.7-0.1,1.4-0.5,2.2-1.2c0.5-0.5,1.1-1,1.6-1.4c0.4-0.3,0.6-0.3,0.9-0.1
			c0.2,0.2,0.3,0.5,0.3,0.7c-0.3,0.3-0.8,1.1-1.6,2.4c-0.4,0.8-0.6,1.5-0.8,2.3c-0.1,0.7,0,1.1,0.1,1.2c0.2,0.2,0.6,0.1,1.4-0.1
			c0.7-0.3,1.2-0.3,1.4-0.1C46.8,334,46.7,334.4,46.2,334.9z M34.9,339.6c1.4-1.4,3.1-3.4,5-5.9c0.2-0.2,0.4-0.5,0.6-0.7
			c0.1-0.2,0.2-0.3,0.1-0.4c-0.1-0.1-0.6,0.1-1.4,0.8c-1,0.7-2.1,1.7-3.4,3c-1.4,1.4-2.5,2.7-3.2,3.8c-0.6,0.9-0.8,1.4-0.6,1.5
			C32.2,342,33.1,341.3,34.9,339.6z M53.6,341.9c-0.1,0.1-0.6,0.4-1.4,0.9c-1.1,0.7-2.2,1.3-3.3,1.8c-2.2,1-4.6,1.7-7.2,1.8
			c-2.1,0.1-4.1,0-6.2-0.3c-1.6-0.3-2.4-0.5-2.6-0.6c-0.2-0.2-0.2-0.4,0-0.6c0.1-0.1,0.5-0.1,1.3-0.2c1.1-0.1,2.2-0.3,3.2-0.5
			c3.1-0.8,5.7-2.1,7.5-4c0.4-0.4,0.8-0.9,1.3-1.5c0.4-0.6,0.7-0.9,0.8-0.9c0.2-0.2,0.4-0.2,0.6,0c0.1,0.1,0.1,0.5-0.2,1.1
			c-0.2,0.4-0.3,0.8-0.5,1.2c-0.1,0.3-0.1,0.4,0,0.5c0.2,0.2,1.2,0.2,2.9,0c2.1-0.2,3.4,0,3.9,0.5C54,341.3,53.9,341.6,53.6,341.9z"
			/>
		<path class="st1" d="M70.2,324.7c-3.7-0.1-5.4-3-4.8-6s6.2-7.1,10-6c4.8,1.4,8.6,6.6,6.8,13c-1.9,6.4-9.4,10-13,10.8
			s-12.5,1.8-15.2-1.1s-2.5-4.7-1.5-6.3c1-1.6,3.2-3.2,5.6-0.8c2.4,2.4,4.1,3.1,5.9,3.7s6.4,0.3,8.9-0.6c3.7-1.3,6.5-4,7.1-6
			c1.1-3.8-0.5-8.4-4-9.9c-2.3-1-4.3-0.7-6.1,0.1c-1.1,0.5-1.9,1.7-2.1,3.1c2-0.2,3.8,1.4,4.1,3.2C72.1,323,72.1,324.7,70.2,324.7z"
			/>
		<g>
			<path class="st1" d="M30.3,269.6c-4.2-7.7,10.6-7.9,7.9,0.8c-2.2,7-13,6.4-15-0.7c-1.6-5.8,0.1-12.9,6.4-14.9
				c18.5-5.7,23.5,18.5,13.4,28.3c-12.3,12.1-18.3,31.8-2.2,43.2c0.5,0.4,2.8,0.3,1.8-0.4c-12.7-9-11.3-25.2-2.3-36.6
				c5.6-7.1,13.7-13.3,10.5-23.6c-4-12.8-21.1-18.7-29.4-5.9c-3.5,5.5-1,11.7,3.5,15.1c5,3.8,12.4,4.2,15.1-2.1c3-7-1-11-5.3-11.5
				c-4.4-0.5-9.2,2.4-7.3,7.1c0.2,0.4,0.4,0.7,0.9,1.2c0.6,0.5,1.1,0.6,1.6,0.8C30.4,270.5,30.6,270.3,30.3,269.6z"/>
		</g>
		<path class="st1" d="M48.2,302.6c0.1,3.7,3,5.4,6,4.8c3-0.6,7.1-6.2,6-10c-1.4-4.8-6.6-8.6-13-6.8c-6.4,1.9-10,9.4-10.8,13
			s-1.8,12.5,1.1,15.2c2.9,2.7,4.7,2.5,6.3,1.5s3.2-3.2,0.8-5.6s-3.1-4.1-3.7-5.9c-0.6-1.8-0.3-6.4,0.6-8.9c1.3-3.7,4-6.5,6-7.1
			c3.8-1.1,8.4,0.5,9.9,4c1,2.3,0.7,4.3-0.1,6.1c-0.5,1.1-1.7,1.9-3.1,2.1c0.2-2-1.4-3.8-3.2-4.1C49.9,300.8,48.2,300.8,48.2,302.6z
			"/>
	</g>
	<g>
		<g>
			<path class="st1" d="M704.7,269.1c4.2-7.7-10.6-7.9-7.9,0.8c2.2,7,13,6.4,15-0.7c1.6-5.8-0.1-12.9-6.4-14.8
				c-18.5-5.7-23.5,18.5-13.4,28.3c12.3,12.1,18.3,31.8,2.2,43.2c-0.5,0.4-2.8,0.3-1.8-0.4c12.7-9,11.3-25.2,2.3-36.6
				c-5.6-7.1-13.7-13.3-10.5-23.6c4-12.8,21.1-18.7,29.3-5.9c3.5,5.5,1,11.7-3.5,15.1c-5,3.8-12.4,4.2-15.1-2.1c-3-7,1-11,5.3-11.5
				c4.4-0.5,9.2,2.4,7.3,7.1c-0.2,0.4-0.4,0.7-0.9,1.2c-0.6,0.5-1.1,0.6-1.6,0.8C704.6,269.9,704.4,269.6,704.7,269.1z"/>
		</g>
		<path class="st1" d="M704,342.5c0.2,0.2,0,0.5-0.4,1c-0.8,0.8-2.1,1.4-3.9,1.8c-1.9,0.4-4.1,0.5-6.6,0.2c-2.1-0.2-4.5-1-7.1-2.5
			c-1.8-1-3.1-1.9-3.8-2.6c-0.7-0.7-0.8-1.1-0.6-1.4c0.2-0.2,0.9-0.2,2,0.1c1.5,0.3,2.7,0.4,3.8,0.3l0.4-0.4c-0.1-0.5-0.5-1.1-1-1.9
			c-0.4-0.6-0.5-0.9-0.3-1.2c0.3-0.3,0.6-0.4,0.9-0.1c0.1,0.1,0.1,0.2,0.3,0.3c0.1,0.2,0.2,0.3,0.3,0.3c4.1,4.1,7.8,6.4,11,6.8
			c1.3,0.1,2.8-0.1,4.4-0.9C703.7,342.4,703.9,342.4,704,342.5z M697,326.1c0.2,0.2,0.4,0.5,0.8,1.1s0.7,1,1,1.3
			c0.8,0.8,1.6,1.6,2.5,2.3c0.9,0.8,1.4,1.2,1.4,1.2c0.6,0.6,1.1,1.4,1.6,2.4c0.4,1,0.8,2,1,3.1c0.1,0.6,0.2,1.3,0.3,1.9
			c0.1,0.4,0.2,0.7,0.4,1.1c0.1,0.4,0,0.8-0.4,1.1c-0.2,0.2-0.5,0.3-0.8,0.3c-2.1,0-3.7-0.1-4.8-0.3c-0.8-0.1-1.7-0.4-2.7-0.9
			s-2-1.1-2.8-1.8c-1.1-0.9-3.1-2.8-6-5.7c-0.2-0.2-0.3-0.5-0.1-0.7c0.3-0.3,0.9-0.4,1.7-0.1c0.5,0.2,0.8,0.3,0.9,0.3
			c0.3,0.1,0.5,0,0.6-0.1c0.3-0.3,0.4-0.8,0.2-1.5c-0.1-0.7-0.5-1.4-1.2-2.2c-0.5-0.5-1-1.1-1.4-1.6c-0.3-0.4-0.3-0.6-0.1-0.9
			c0.2-0.2,0.5-0.3,0.7-0.3c0.3,0.3,1.1,0.8,2.4,1.6c0.8,0.4,1.5,0.6,2.3,0.8c0.7,0.1,1.1,0,1.2-0.1c0.2-0.2,0.1-0.6-0.1-1.4
			c-0.3-0.7-0.3-1.2-0.1-1.4C696,325.5,696.5,325.6,697,326.1z M701.7,337.5c-1.4-1.4-3.4-3.1-5.9-5c-0.2-0.2-0.5-0.4-0.7-0.6
			c-0.2-0.1-0.3-0.2-0.4-0.1s0.1,0.6,0.8,1.4c0.7,1,1.7,2.1,3,3.4c1.4,1.4,2.7,2.5,3.8,3.2c0.9,0.6,1.4,0.8,1.5,0.6
			C704.1,340.2,703.4,339.2,701.7,337.5z M703.9,318.7c0.1,0.1,0.4,0.6,0.9,1.4c0.7,1.1,1.3,2.2,1.8,3.3c1,2.2,1.7,4.6,1.8,7.2
			c0.1,2.1,0,4.1-0.3,6.2c-0.3,1.6-0.5,2.4-0.6,2.6c-0.2,0.2-0.4,0.2-0.6,0c-0.1-0.1-0.2-0.5-0.2-1.3c-0.1-1.1-0.3-2.2-0.5-3.2
			c-0.8-3.1-2.1-5.7-4-7.5c-0.4-0.4-0.9-0.8-1.5-1.3c-0.6-0.4-0.9-0.7-0.9-0.8c-0.2-0.2-0.2-0.4,0-0.6c0.1-0.1,0.5-0.1,1.1,0.2
			c0.4,0.2,0.8,0.3,1.2,0.5c0.3,0.1,0.4,0.1,0.5,0c0.2-0.2,0.2-1.2,0-2.9c-0.2-2.1,0-3.4,0.5-3.9
			C703.4,318.4,703.6,318.4,703.9,318.7z"/>
		<path class="st1" d="M686.8,302.1c-0.1,3.7-3,5.4-6,4.8s-7.1-6.2-6-10c1.4-4.8,6.6-8.6,13-6.8c6.4,1.9,10,9.4,10.8,13
			s1.8,12.5-1.1,15.2s-4.7,2.5-6.3,1.5c-1.6-1-3.2-3.2-0.8-5.6c2.4-2.4,3.1-4.1,3.7-5.9s0.3-6.4-0.6-8.9c-1.3-3.7-4-6.5-6-7.1
			c-3.8-1.1-8.4,0.5-9.9,4c-1,2.3-0.7,4.3,0.1,6.1c0.5,1.1,1.7,1.9,3.1,2.1c-0.2-2,1.4-3.8,3.2-4.1
			C685,300.1,686.8,300.1,686.8,302.1z"/>
		<g>
			<path class="st1" d="M631.8,342c-7.7,4.2-7.9-10.6,0.8-7.9c7,2.2,6.4,13-0.7,15c-5.8,1.6-12.9-0.1-14.9-6.4
				c-5.7-18.5,18.5-23.5,28.3-13.4c12.1,12.3,31.8,18.3,43.2,2.2c0.4-0.5,0.3-2.8-0.4-1.8c-9,12.7-25.2,11.3-36.6,2.3
				c-7.1-5.6-13.3-13.7-23.6-10.5c-12.8,4-18.7,21.1-5.9,29.4c5.5,3.5,11.7,1,15.1-3.5c3.8-5,4.2-12.4-2.1-15.1c-7-3-11,1-11.5,5.3
				c-0.5,4.4,2.4,9.2,7.1,7.3c0.4-0.2,0.7-0.4,1.2-0.9c0.5-0.6,0.7-1.1,0.8-1.6C632.5,341.9,632.4,341.8,631.8,342z"/>
		</g>
		<path class="st1" d="M664.7,324.1c3.7-0.1,5.4-3,4.8-6s-6.2-7.1-10-6c-4.8,1.4-8.6,6.6-6.8,13c1.9,6.4,9.4,10,13,10.8
			s12.5,1.8,15.2-1.1s2.5-4.7,1.5-6.3c-1-1.6-3.2-3.2-5.6-0.8c-2.4,2.4-4.1,3.1-5.9,3.7s-6.4,0.3-8.9-0.6c-3.7-1.3-6.5-4-7.1-6
			c-1.1-3.8,0.5-8.4,4-9.9c2.3-1,4.3-0.7,6.1,0.1c1.1,0.5,1.9,1.7,2.1,3.1c-2-0.2-3.8,1.4-4.1,3.2
			C662.9,322.4,662.9,324.2,664.7,324.1z"/>
	</g>
	<g>
		<g>
			<path class="st1" d="M631.3,39.5c-7.7-4.2-7.9,10.6,0.8,7.9c7-2.2,6.4-13-0.7-15c-5.8-1.6-12.9,0.1-14.8,6.4
				c-5.7,18.5,18.5,23.5,28.3,13.4C657,40,676.7,34,688.1,50.1c0.4,0.5,0.3,2.8-0.4,1.8c-9-12.7-25.2-11.3-36.6-2.3
				c-7.1,5.6-13.3,13.7-23.6,10.5c-12.8-4-18.7-21.1-5.9-29.3c5.5-3.5,11.7-1,15.1,3.5c3.8,5,4.2,12.4-2.1,15.1c-7,3-11-1-11.5-5.3
				c-0.5-4.4,2.4-9.2,7.1-7.3c0.4,0.2,0.7,0.4,1.2,0.9c0.5,0.6,0.7,1.1,0.8,1.6C632,39.7,631.8,39.9,631.3,39.5z"/>
		</g>
		<path class="st1" d="M704.6,40.3c0.2-0.2,0.5,0,1,0.4c0.8,0.8,1.4,2.1,1.8,3.9c0.4,1.9,0.5,4.1,0.2,6.6c-0.2,2.1-1,4.5-2.5,7.1
			c-1,1.8-1.9,3.1-2.6,3.8s-1.1,0.8-1.4,0.6c-0.2-0.2-0.2-0.9,0.1-2c0.3-1.5,0.4-2.7,0.3-3.8l-0.4-0.4c-0.5,0.1-1.1,0.5-1.9,1
			c-0.6,0.4-0.9,0.5-1.2,0.3c-0.3-0.3-0.4-0.6-0.1-0.9c0.1-0.1,0.2-0.1,0.3-0.3c0.2-0.1,0.3-0.2,0.3-0.3c4.1-4.1,6.4-7.8,6.8-11
			c0.1-1.3-0.1-2.8-0.9-4.4C704.5,40.5,704.5,40.4,704.6,40.3z M688.2,47.3c0.2-0.2,0.5-0.4,1.1-0.8c0.6-0.4,1-0.7,1.3-1
			c0.8-0.8,1.6-1.6,2.3-2.5c0.8-0.9,1.2-1.4,1.2-1.4c0.6-0.6,1.4-1.1,2.4-1.6c1-0.4,2-0.8,3.1-1c0.6-0.1,1.3-0.2,1.9-0.3
			c0.4-0.1,0.7-0.2,1.1-0.4c0.4-0.1,0.8,0,1.1,0.4c0.2,0.2,0.3,0.5,0.3,0.8c0,2.1-0.1,3.7-0.3,4.8c-0.1,0.8-0.4,1.7-0.9,2.7
			s-1.1,2-1.8,2.8c-0.9,1.1-2.8,3.1-5.7,6c-0.2,0.2-0.5,0.3-0.7,0.1c-0.3-0.3-0.4-0.9-0.1-1.7c0.2-0.5,0.3-0.8,0.3-0.9
			c0.1-0.3,0-0.5-0.1-0.6c-0.3-0.3-0.8-0.4-1.5-0.2c-0.7,0.1-1.4,0.5-2.2,1.2c-0.5,0.5-1.1,1-1.6,1.4c-0.4,0.3-0.6,0.3-0.9,0.1
			c-0.2-0.2-0.3-0.5-0.3-0.7c0.3-0.3,0.8-1.1,1.6-2.4c0.4-0.8,0.6-1.5,0.8-2.3c0.1-0.7,0-1.1-0.1-1.2c-0.2-0.2-0.6-0.1-1.4,0.1
			c-0.7,0.3-1.2,0.3-1.4,0.1C687.6,48.3,687.7,47.9,688.2,47.3z M699.5,42.5c-1.4,1.4-3.1,3.4-5,5.9c-0.2,0.2-0.4,0.5-0.6,0.7
			c-0.1,0.2-0.2,0.3-0.1,0.4c0.1,0.1,0.6-0.1,1.4-0.8c1-0.7,2.1-1.7,3.4-3c1.4-1.4,2.5-2.7,3.2-3.8c0.6-0.9,0.8-1.4,0.6-1.5
			C702.3,40.2,701.3,40.9,699.5,42.5z M680.8,40.4c0.1-0.1,0.6-0.4,1.4-0.9c1.1-0.7,2.2-1.3,3.3-1.8c2.2-1,4.6-1.7,7.2-1.8
			c2.1-0.1,4.1,0,6.2,0.3c1.6,0.3,2.4,0.5,2.6,0.6c0.2,0.2,0.2,0.4,0,0.6c-0.1,0.1-0.5,0.1-1.3,0.2c-1.1,0.1-2.2,0.3-3.2,0.5
			c-3.1,0.8-5.7,2.1-7.5,4c-0.4,0.4-0.8,0.9-1.3,1.5c-0.4,0.6-0.7,0.9-0.8,0.9c-0.2,0.2-0.4,0.2-0.6,0c-0.1-0.1-0.1-0.5,0.2-1.1
			c0.2-0.4,0.3-0.8,0.5-1.2c0.1-0.3,0.1-0.4,0-0.5c-0.2-0.2-1.2-0.2-2.9,0c-2.1,0.2-3.4,0-3.9-0.5C680.4,40.9,680.5,40.7,680.8,40.4
			z"/>
		<path class="st1" d="M664.2,57.5c3.7,0.1,5.4,3,4.8,6c-0.6,3-6.2,7.1-10,6c-4.8-1.4-8.6-6.6-6.8-13c1.9-6.4,9.4-10,13-10.8
			s12.5-1.8,15.2,1.1c2.7,2.9,2.5,4.7,1.5,6.3s-3.2,3.2-5.6,0.8s-4.1-3.1-5.9-3.7c-1.8-0.6-6.4-0.3-8.9,0.6c-3.7,1.3-6.5,4-7.1,6
			c-1.1,3.8,0.5,8.4,4,9.9c2.3,1,4.3,0.7,6.1-0.1c1.1-0.5,1.9-1.7,2.1-3.1c-2,0.2-3.8-1.4-4.1-3.2C662.3,59.3,662.3,57.5,664.2,57.5
			z"/>
		<g>
			<path class="st1" d="M704.1,112.4c4.2,7.7-10.6,7.9-7.9-0.8c2.2-7,13-6.4,15,0.7c1.6,5.8-0.1,12.9-6.4,14.9
				c-18.5,5.7-23.5-18.5-13.4-28.3c12.3-12.1,18.3-31.8,2.2-43.2c-0.5-0.4-2.8-0.3-1.8,0.4c12.7,9,11.3,25.2,2.3,36.6
				c-5.6,7.1-13.7,13.3-10.5,23.6c4,12.8,21.1,18.7,29.4,5.9c3.5-5.5,1-11.7-3.5-15.1c-5-3.8-12.4-4.2-15.1,2.1c-3,7,1,11,5.3,11.5
				c4.4,0.5,9.2-2.4,7.3-7.1c-0.2-0.4-0.4-0.7-0.9-1.2c-0.6-0.5-1.1-0.6-1.6-0.8C704,111.8,703.8,111.9,704.1,112.4z"/>
		</g>
		<path class="st1" d="M686.2,79.5c-0.1-3.7-3-5.4-6-4.8s-7.1,6.2-6,10c1.4,4.8,6.6,8.6,13,6.8c6.4-1.9,10-9.4,10.8-13
			s1.8-12.5-1.1-15.2c-2.9-2.7-4.7-2.5-6.3-1.5c-1.6,1-3.2,3.2-0.8,5.6c2.4,2.4,3.1,4.1,3.7,5.9s0.3,6.4-0.6,8.9
			c-1.3,3.7-4,6.5-6,7.1c-3.8,1.1-8.4-0.5-9.9-4c-1-2.3-0.7-4.3,0.1-6.1c0.5-1.1,1.7-1.9,3.1-2.1c-0.2,2,1.4,3.8,3.2,4.1
			C684.5,81.4,686.2,81.3,686.2,79.5z"/>
	</g>
</g>
</svg>
