<?xml version="1.0" encoding="utf-8"?>
<!-- Generator: Adobe Illustrator 24.0.0, SVG Export Plug-In . SVG Version: 6.00 Build 0)  -->
<svg version="1.1" id="Layer_1" xmlns="http://www.w3.org/2000/svg" xmlns:xlink="http://www.w3.org/1999/xlink" x="0px" y="0px"
	 viewBox="0 0 1366 333" style="enable-background:new 0 0 1366 333;" xml:space="preserve">
<style type="text/css">
	.st0{fill:#1F0000;}
	.st1{fill:#CE9C6B;}
</style>
<rect x="0" y="0.1" class="st0" width="1366" height="332.9"/>
<g>
	<g>
		<path class="st1" d="M37.2,110.6c-4.2,7.7,10.6,7.9,7.9-0.8c-2.2-7-13-6.4-15,0.7c-1.6,5.8,0.1,12.9,6.4,14.8
			C55,131.1,60,106.9,50,97.1C37.6,85,31.6,65.3,47.7,53.9c0.5-0.4,2.8-0.3,1.8,0.4c-12.7,9-11.3,25.2-2.3,36.6
			c5.6,7.1,13.7,13.3,10.5,23.6c-4,12.8-21.1,18.7-29.3,5.9c-3.5-5.5-1-11.7,3.5-15.1c5-3.8,12.4-4.2,15.1,2.1c3,7-1,11-5.3,11.5
			c-4.4,0.5-9.2-2.4-7.3-7.1c0.2-0.4,0.4-0.7,0.9-1.2c0.6-0.5,1.1-0.6,1.6-0.8C37.3,109.8,37.5,110,37.2,110.6z"/>
	</g>
	<path class="st1" d="M37.9,37.2c-0.2-0.2,0-0.5,0.4-1c0.8-0.8,2.1-1.4,3.9-1.8c1.9-0.4,4.1-0.5,6.6-0.2c2.1,0.2,4.5,1,7.1,2.5
		c1.8,1,3.1,1.9,3.8,2.6c0.7,0.7,0.8,1.1,0.6,1.4c-0.2,0.2-0.9,0.2-2-0.1c-1.5-0.3-2.7-0.4-3.8-0.3l-0.4,0.4c0.1,0.5,0.5,1.1,1,1.9
		c0.4,0.6,0.5,0.9,0.3,1.2c-0.3,0.3-0.6,0.4-0.9,0.1c-0.1-0.1-0.1-0.2-0.3-0.3c-0.1-0.2-0.2-0.3-0.3-0.3c-4.1-4.1-7.8-6.4-11-6.8
		c-1.3-0.1-2.8,0.1-4.4,0.9C38.2,37.3,38,37.3,37.9,37.2z M44.9,53.6c-0.2-0.2-0.4-0.5-0.8-1.1c-0.4-0.6-0.7-1-1-1.3
		c-0.8-0.8-1.6-1.6-2.5-2.3c-0.9-0.8-1.4-1.2-1.4-1.2c-0.6-0.6-1.1-1.4-1.6-2.4c-0.4-1-0.8-2-1-3.1c-0.1-0.6-0.2-1.3-0.3-1.9
		c-0.1-0.4-0.2-0.7-0.4-1.1c-0.1-0.4,0-0.8,0.4-1.1c0.2-0.2,0.5-0.3,0.8-0.3c2.1,0,3.7,0.1,4.8,0.3c0.8,0.1,1.7,0.4,2.7,0.9
		c1,0.5,2,1.1,2.8,1.8c1.1,0.9,3.1,2.8,6,5.7c0.2,0.2,0.3,0.5,0.1,0.7c-0.3,0.3-0.9,0.4-1.7,0.1c-0.5-0.2-0.8-0.3-0.9-0.3
		c-0.3-0.1-0.5,0-0.6,0.1c-0.3,0.3-0.4,0.8-0.2,1.5c0.1,0.7,0.5,1.4,1.2,2.2c0.5,0.5,1,1.1,1.4,1.6c0.3,0.4,0.3,0.6,0.1,0.9
		c-0.2,0.2-0.5,0.3-0.7,0.3c-0.3-0.3-1.1-0.8-2.4-1.6c-0.8-0.4-1.5-0.6-2.3-0.8c-0.7-0.1-1.1,0-1.2,0.1c-0.2,0.2-0.1,0.6,0.1,1.4
		c0.3,0.7,0.3,1.2,0.1,1.4C45.9,54.2,45.4,54.1,44.9,53.6z M40.2,42.3c1.4,1.4,3.4,3.1,5.9,5c0.2,0.2,0.5,0.4,0.7,0.6
		c0.2,0.1,0.3,0.2,0.4,0.1c0.1-0.1-0.1-0.6-0.8-1.4c-0.7-1-1.7-2.1-3-3.4c-1.4-1.4-2.7-2.5-3.8-3.2c-0.9-0.6-1.4-0.8-1.5-0.6
		C37.8,39.6,38.5,40.6,40.2,42.3z M38,61c-0.1-0.1-0.4-0.6-0.9-1.4c-0.7-1.1-1.3-2.2-1.8-3.3c-1-2.2-1.7-4.6-1.8-7.2
		c-0.1-2.1,0-4.1,0.3-6.2c0.3-1.6,0.5-2.4,0.6-2.6c0.2-0.2,0.4-0.2,0.6,0c0.1,0.1,0.1,0.5,0.2,1.3c0.1,1.1,0.3,2.2,0.5,3.2
		c0.8,3.1,2.1,5.7,4,7.5c0.4,0.4,0.9,0.8,1.5,1.3c0.6,0.4,0.9,0.7,0.9,0.8c0.2,0.2,0.2,0.4,0,0.6c-0.1,0.1-0.5,0.1-1.1-0.2
		c-0.4-0.2-0.8-0.3-1.2-0.5c-0.3-0.1-0.4-0.1-0.5,0c-0.2,0.2-0.2,1.2,0,2.9c0.2,2.1,0,3.4-0.5,3.9C38.5,61.4,38.3,61.3,38,61z"/>
	<path class="st1" d="M55.1,77.7c0.1-3.7,3-5.4,6-4.8c3,0.6,7.1,6.2,6,10c-1.4,4.8-6.6,8.6-13,6.8c-6.4-1.9-10-9.4-10.8-13
		c-0.8-3.6-1.8-12.5,1.1-15.2c2.9-2.7,4.7-2.5,6.3-1.5c1.6,1,3.2,3.2,0.8,5.6c-2.4,2.4-3.1,4.1-3.7,5.9c-0.6,1.8-0.3,6.4,0.6,8.9
		c1.3,3.7,4,6.5,6,7.1c3.8,1.1,8.4-0.5,9.9-4c1-2.3,0.7-4.3-0.1-6.1c-0.5-1.1-1.7-1.9-3.1-2.1c0.2,2-1.4,3.8-3.2,4.1
		C56.9,79.5,55.1,79.5,55.1,77.7z"/>
	<g>
		<path class="st1" d="M110.1,37.7c7.7-4.2,7.9,10.6-0.8,7.9c-7-2.2-6.4-13,0.7-15c5.8-1.6,12.9,0.1,14.9,6.4
			c5.7,18.5-18.5,23.5-28.3,13.4c-12.1-12.3-31.8-18.3-43.2-2.2c-0.4,0.5-0.3,2.8,0.4,1.8c9-12.7,25.2-11.3,36.6-2.3
			c7.1,5.6,13.3,13.7,23.6,10.5c12.8-4,18.7-21.1,5.9-29.4c-5.5-3.5-11.7-1-15.1,3.5c-3.8,5-4.2,12.4,2.1,15.1c7,3,11-1,11.5-5.3
			c0.5-4.4-2.4-9.2-7.1-7.3c-0.4,0.2-0.7,0.4-1.2,0.9c-0.5,0.6-0.6,1.1-0.8,1.6C109.4,37.8,109.5,38,110.1,37.7z"/>
	</g>
	<path class="st1" d="M77.2,55.6c-3.7,0.1-5.4,3-4.8,6c0.6,3,6.2,7.1,10,6c4.8-1.4,8.6-6.6,6.8-13c-1.9-6.4-9.4-10-13-10.8
		C72.6,43,63.6,42.1,60.9,45c-2.7,2.9-2.5,4.7-1.5,6.3c1,1.6,3.2,3.2,5.6,0.8c2.4-2.4,4.1-3.1,5.9-3.7c1.8-0.6,6.4-0.3,8.9,0.6
		c3.7,1.3,6.5,4,7.1,6c1.1,3.8-0.5,8.4-4,9.9c-2.3,1-4.3,0.7-6.1-0.1c-1.1-0.5-1.9-1.7-2.1-3.1c2,0.2,3.8-1.4,4.1-3.2
		C79,57.3,79,55.6,77.2,55.6z"/>
</g>
<g>
	<g>
		<path class="st1" d="M110.6,296.1c7.7,4.2,7.9-10.6-0.8-7.9c-7,2.2-6.4,13,0.7,15c5.8,1.6,12.9-0.1,14.8-6.4
			c5.7-18.5-18.5-23.5-28.3-13.4c-12.1,12.3-31.8,18.3-43.2,2.2c-0.4-0.5-0.3-2.8,0.4-1.8c9,12.7,25.2,11.3,36.6,2.3
			c7.1-5.6,13.3-13.7,23.6-10.5c12.8,4,18.7,21.1,5.9,29.3c-5.5,3.5-11.7,1-15.1-3.5c-3.8-5-4.2-12.4,2.1-15.1c7-3,11,1,11.5,5.3
			c0.5,4.4-2.4,9.2-7.1,7.3c-0.4-0.2-0.7-0.4-1.2-0.9c-0.5-0.6-0.6-1.1-0.8-1.6C109.9,296,110.1,295.8,110.6,296.1z"/>
	</g>
	<path class="st1" d="M37.3,295.4c-0.2,0.2-0.5,0-1-0.4c-0.8-0.8-1.4-2.1-1.8-3.9c-0.4-1.9-0.5-4.1-0.2-6.6c0.2-2.1,1-4.5,2.5-7.1
		c1-1.8,1.9-3.1,2.6-3.8c0.7-0.7,1.1-0.8,1.4-0.6c0.2,0.2,0.2,0.9-0.1,2c-0.3,1.5-0.4,2.7-0.3,3.8l0.4,0.4c0.5-0.1,1.1-0.5,1.9-1
		c0.6-0.4,0.9-0.5,1.2-0.3c0.3,0.3,0.4,0.6,0.1,0.9c-0.1,0.1-0.2,0.1-0.3,0.3c-0.2,0.1-0.3,0.2-0.3,0.3c-4.1,4.1-6.4,7.8-6.8,11
		c-0.1,1.3,0.1,2.8,0.9,4.4C37.4,295.2,37.4,295.3,37.3,295.4z M53.7,288.4c-0.2,0.2-0.5,0.4-1.1,0.8c-0.6,0.4-1,0.7-1.3,1
		c-0.8,0.8-1.6,1.6-2.3,2.5c-0.8,0.9-1.2,1.4-1.2,1.4c-0.6,0.6-1.4,1.1-2.4,1.6c-1,0.4-2,0.8-3.1,1c-0.6,0.1-1.3,0.2-1.9,0.3
		c-0.4,0.1-0.7,0.2-1.1,0.4c-0.4,0.1-0.8,0-1.1-0.4c-0.2-0.2-0.3-0.5-0.3-0.8c0-2.1,0.1-3.7,0.3-4.8c0.1-0.8,0.4-1.7,0.9-2.7
		c0.5-1,1.1-2,1.8-2.8c0.9-1.1,2.8-3.1,5.7-6c0.2-0.2,0.5-0.3,0.7-0.1c0.3,0.3,0.4,0.9,0.1,1.7c-0.2,0.5-0.3,0.8-0.3,0.9
		c-0.1,0.3,0,0.5,0.1,0.6c0.3,0.3,0.8,0.4,1.5,0.2c0.7-0.1,1.4-0.5,2.2-1.2c0.5-0.5,1.1-1,1.6-1.4c0.4-0.3,0.6-0.3,0.9-0.1
		c0.2,0.2,0.3,0.5,0.3,0.7c-0.3,0.3-0.8,1.1-1.6,2.4c-0.4,0.8-0.6,1.5-0.8,2.3c-0.1,0.7,0,1.1,0.1,1.2c0.2,0.2,0.6,0.1,1.4-0.1
		c0.7-0.3,1.2-0.3,1.4-0.1C54.3,287.5,54.2,287.9,53.7,288.4z M42.4,293.1c1.4-1.4,3.1-3.4,5-5.9c0.2-0.2,0.4-0.5,0.6-0.7
		c0.1-0.2,0.2-0.3,0.1-0.4c-0.1-0.1-0.6,0.1-1.4,0.8c-1,0.7-2.1,1.7-3.4,3c-1.4,1.4-2.5,2.7-3.2,3.8c-0.6,0.9-0.8,1.4-0.6,1.5
		C39.7,295.5,40.6,294.8,42.4,293.1z M61.1,295.4c-0.1,0.1-0.6,0.4-1.4,0.9c-1.1,0.7-2.2,1.3-3.3,1.8c-2.2,1-4.6,1.7-7.2,1.8
		c-2.1,0.1-4.1,0-6.2-0.3c-1.6-0.3-2.4-0.5-2.6-0.6c-0.2-0.2-0.2-0.4,0-0.6c0.1-0.1,0.5-0.1,1.3-0.2c1.1-0.1,2.2-0.3,3.2-0.5
		c3.1-0.8,5.7-2.1,7.5-4c0.4-0.4,0.8-0.9,1.3-1.5c0.4-0.6,0.7-0.9,0.8-0.9c0.2-0.2,0.4-0.2,0.6,0c0.1,0.1,0.1,0.5-0.2,1.1
		c-0.2,0.4-0.3,0.8-0.5,1.2c-0.1,0.3-0.1,0.4,0,0.5c0.2,0.2,1.2,0.2,2.9,0c2.1-0.2,3.4,0,3.9,0.5C61.5,294.8,61.4,295.1,61.1,295.4z
		"/>
	<path class="st1" d="M77.7,278.2c-3.7-0.1-5.4-3-4.8-6c0.6-3,6.2-7.1,10-6c4.8,1.4,8.6,6.6,6.8,13c-1.9,6.4-9.4,10-13,10.8
		c-3.6,0.8-12.5,1.8-15.2-1.1c-2.7-2.9-2.5-4.7-1.5-6.3c1-1.6,3.2-3.2,5.6-0.8c2.4,2.4,4.1,3.1,5.9,3.7c1.8,0.6,6.4,0.3,8.9-0.6
		c3.7-1.3,6.5-4,7.1-6c1.1-3.8-0.5-8.4-4-9.9c-2.3-1-4.3-0.7-6.1,0.1c-1.1,0.5-1.9,1.7-2.1,3.1c2-0.2,3.8,1.4,4.1,3.2
		C79.6,276.5,79.6,278.2,77.7,278.2z"/>
	<g>
		<path class="st1" d="M37.8,223.2c-4.2-7.7,10.6-7.9,7.9,0.8c-2.2,7-13,6.4-15-0.7c-1.6-5.8,0.1-12.9,6.4-14.9
			c18.5-5.7,23.5,18.5,13.4,28.3c-12.3,12.1-18.3,31.8-2.2,43.2c0.5,0.4,2.8,0.3,1.8-0.4c-12.7-9-11.3-25.2-2.3-36.6
			c5.6-7.1,13.7-13.3,10.5-23.6c-4-12.8-21.1-18.7-29.4-5.9c-3.5,5.5-1,11.7,3.5,15.1c5,3.8,12.4,4.2,15.1-2.1c3-7-1-11-5.3-11.5
			c-4.4-0.5-9.2,2.4-7.3,7.1c0.2,0.4,0.4,0.7,0.9,1.2c0.6,0.5,1.1,0.6,1.6,0.8C37.9,224,38.1,223.8,37.8,223.2z"/>
	</g>
	<path class="st1" d="M55.7,256.1c0.1,3.7,3,5.4,6,4.8c3-0.6,7.1-6.2,6-10c-1.4-4.8-6.6-8.6-13-6.8c-6.4,1.9-10,9.4-10.8,13
		c-0.8,3.6-1.8,12.5,1.1,15.2c2.9,2.7,4.7,2.5,6.3,1.5c1.6-1,3.2-3.2,0.8-5.6c-2.4-2.4-3.1-4.1-3.7-5.9c-0.6-1.8-0.3-6.4,0.6-8.9
		c1.3-3.7,4-6.5,6-7.1c3.8-1.1,8.4,0.5,9.9,4c1,2.3,0.7,4.3-0.1,6.1c-0.5,1.1-1.7,1.9-3.1,2.1c0.2-2-1.4-3.8-3.2-4.1
		C57.4,254.3,55.7,254.3,55.7,256.1z"/>
</g>
<g>
	<g>
		<path class="st1" d="M1328.2,222.7c4.2-7.7-10.6-7.9-7.9,0.8c2.2,7,13,6.4,15-0.7c1.6-5.8-0.1-12.9-6.4-14.8
			c-18.5-5.7-23.5,18.5-13.4,28.3c12.3,12.1,18.3,31.8,2.2,43.2c-0.5,0.4-2.8,0.3-1.8-0.4c12.7-9,11.3-25.2,2.3-36.6
			c-5.6-7.1-13.7-13.3-10.5-23.6c4-12.8,21.1-18.7,29.3-5.9c3.5,5.5,1,11.7-3.5,15.1c-5,3.8-12.4,4.2-15.1-2.1c-3-7,1-11,5.3-11.5
			c4.4-0.5,9.2,2.4,7.3,7.1c-0.2,0.4-0.4,0.7-0.9,1.2c-0.6,0.5-1.1,0.6-1.6,0.8C1328.1,223.4,1327.9,223.2,1328.2,222.7z"/>
	</g>
	<path class="st1" d="M1327.5,296c0.2,0.2,0,0.5-0.4,1c-0.8,0.8-2.1,1.4-3.9,1.8c-1.9,0.4-4.1,0.5-6.6,0.2c-2.1-0.2-4.5-1-7.1-2.5
		c-1.8-1-3.1-1.9-3.8-2.6c-0.7-0.7-0.8-1.1-0.6-1.4c0.2-0.2,0.9-0.2,2,0.1c1.5,0.3,2.7,0.4,3.8,0.3l0.4-0.4c-0.1-0.5-0.5-1.1-1-1.9
		c-0.4-0.6-0.5-0.9-0.3-1.2c0.3-0.3,0.6-0.4,0.9-0.1c0.1,0.1,0.1,0.2,0.3,0.3c0.1,0.2,0.2,0.3,0.3,0.3c4.1,4.1,7.8,6.4,11,6.8
		c1.3,0.1,2.8-0.1,4.4-0.9C1327.2,295.9,1327.4,295.9,1327.5,296z M1320.5,279.6c0.2,0.2,0.4,0.5,0.8,1.1c0.4,0.6,0.7,1,1,1.3
		c0.8,0.8,1.6,1.6,2.5,2.3c0.9,0.8,1.4,1.2,1.4,1.2c0.6,0.6,1.1,1.4,1.6,2.4c0.4,1,0.8,2,1,3.1c0.1,0.6,0.2,1.3,0.3,1.9
		c0.1,0.4,0.2,0.7,0.4,1.1c0.1,0.4,0,0.8-0.4,1.1c-0.2,0.2-0.5,0.3-0.8,0.3c-2.1,0-3.7-0.1-4.8-0.3c-0.8-0.1-1.7-0.4-2.7-0.9
		c-1-0.5-2-1.1-2.8-1.8c-1.1-0.9-3.1-2.8-6-5.7c-0.2-0.2-0.3-0.5-0.1-0.7c0.3-0.3,0.9-0.4,1.7-0.1c0.5,0.2,0.8,0.3,0.9,0.3
		c0.3,0.1,0.5,0,0.6-0.1c0.3-0.3,0.4-0.8,0.2-1.5c-0.1-0.7-0.5-1.4-1.2-2.2c-0.5-0.5-1-1.1-1.4-1.6c-0.3-0.4-0.3-0.6-0.1-0.9
		c0.2-0.2,0.5-0.3,0.7-0.3c0.3,0.3,1.1,0.8,2.4,1.6c0.8,0.4,1.5,0.6,2.3,0.8c0.7,0.1,1.1,0,1.2-0.1c0.2-0.2,0.1-0.6-0.1-1.4
		c-0.3-0.7-0.3-1.2-0.1-1.4C1319.5,279,1320,279.1,1320.5,279.6z M1325.2,291c-1.4-1.4-3.4-3.1-5.9-5c-0.2-0.2-0.5-0.4-0.7-0.6
		c-0.2-0.1-0.3-0.2-0.4-0.1c-0.1,0.1,0.1,0.6,0.8,1.4c0.7,1,1.7,2.1,3,3.4c1.4,1.4,2.7,2.5,3.8,3.2c0.9,0.6,1.4,0.8,1.5,0.6
		C1327.6,293.7,1326.9,292.7,1325.2,291z M1327.4,272.2c0.1,0.1,0.4,0.6,0.9,1.4c0.7,1.1,1.3,2.2,1.8,3.3c1,2.2,1.7,4.6,1.8,7.2
		c0.1,2.1,0,4.1-0.3,6.2c-0.3,1.6-0.5,2.4-0.6,2.6c-0.2,0.2-0.4,0.2-0.6,0c-0.1-0.1-0.2-0.5-0.2-1.3c-0.1-1.1-0.3-2.2-0.5-3.2
		c-0.8-3.1-2.1-5.7-4-7.5c-0.4-0.4-0.9-0.8-1.5-1.3c-0.6-0.4-0.9-0.7-0.9-0.8c-0.2-0.2-0.2-0.4,0-0.6c0.1-0.1,0.5-0.1,1.1,0.2
		c0.4,0.2,0.8,0.3,1.2,0.5c0.3,0.1,0.4,0.1,0.5,0c0.2-0.2,0.2-1.2,0-2.9c-0.2-2.1,0-3.4,0.5-3.9
		C1326.9,271.9,1327.1,271.9,1327.4,272.2z"/>
	<path class="st1" d="M1310.3,255.6c-0.1,3.7-3,5.4-6,4.8c-3-0.6-7.1-6.2-6-10c1.4-4.8,6.6-8.6,13-6.8c6.4,1.9,10,9.4,10.8,13
		c0.8,3.6,1.8,12.5-1.1,15.2c-2.9,2.7-4.7,2.5-6.3,1.5c-1.6-1-3.2-3.2-0.8-5.6c2.4-2.4,3.1-4.1,3.7-5.9c0.6-1.8,0.3-6.4-0.6-8.9
		c-1.3-3.7-4-6.5-6-7.1c-3.8-1.1-8.4,0.5-9.9,4c-1,2.3-0.7,4.3,0.1,6.1c0.5,1.1,1.7,1.9,3.1,2.1c-0.2-2,1.4-3.8,3.2-4.1
		C1308.5,253.7,1310.3,253.7,1310.3,255.6z"/>
	<g>
		<path class="st1" d="M1255.3,295.5c-7.7,4.2-7.9-10.6,0.8-7.9c7,2.2,6.4,13-0.7,15c-5.8,1.6-12.9-0.1-14.9-6.4
			c-5.7-18.5,18.5-23.5,28.3-13.4c12.1,12.3,31.8,18.3,43.2,2.2c0.4-0.5,0.3-2.8-0.4-1.8c-9,12.7-25.2,11.3-36.6,2.3
			c-7.1-5.6-13.3-13.7-23.6-10.5c-12.8,4-18.7,21.1-5.9,29.4c5.5,3.5,11.7,1,15.1-3.5c3.8-5,4.2-12.4-2.1-15.1c-7-3-11,1-11.5,5.3
			c-0.5,4.4,2.4,9.2,7.1,7.3c0.4-0.2,0.7-0.4,1.2-0.9c0.5-0.6,0.7-1.1,0.8-1.6C1256,295.4,1255.9,295.3,1255.3,295.5z"/>
	</g>
	<path class="st1" d="M1288.2,277.6c3.7-0.1,5.4-3,4.8-6c-0.6-3-6.2-7.1-10-6c-4.8,1.4-8.6,6.6-6.8,13c1.9,6.4,9.4,10,13,10.8
		c3.6,0.8,12.5,1.8,15.2-1.1c2.7-2.9,2.5-4.7,1.5-6.3c-1-1.6-3.2-3.2-5.6-0.8c-2.4,2.4-4.1,3.1-5.9,3.7c-1.8,0.6-6.4,0.3-8.9-0.6
		c-3.7-1.3-6.5-4-7.1-6c-1.1-3.8,0.5-8.4,4-9.9c2.3-1,4.3-0.7,6.1,0.1c1.1,0.5,1.9,1.7,2.1,3.1c-2-0.2-3.8,1.4-4.1,3.2
		C1286.4,275.9,1286.4,277.7,1288.2,277.6z"/>
</g>
<g>
	<g>
		<path class="st1" d="M1254.8,37.1c-7.7-4.2-7.9,10.6,0.8,7.9c7-2.2,6.4-13-0.7-15c-5.8-1.6-12.9,0.1-14.8,6.4
			c-5.7,18.5,18.5,23.5,28.3,13.4c12.1-12.3,31.8-18.3,43.2-2.2c0.4,0.5,0.3,2.8-0.4,1.8c-9-12.7-25.2-11.3-36.6-2.3
			c-7.1,5.6-13.3,13.7-23.6,10.5c-12.8-4-18.7-21.1-5.9-29.3c5.5-3.5,11.7-1,15.1,3.5c3.8,5,4.2,12.4-2.1,15.1c-7,3-11-1-11.5-5.3
			c-0.5-4.4,2.4-9.2,7.1-7.3c0.4,0.2,0.7,0.4,1.2,0.9c0.5,0.6,0.7,1.1,0.8,1.6C1255.5,37.2,1255.3,37.4,1254.8,37.1z"/>
	</g>
	<path class="st1" d="M1328.1,37.8c0.2-0.2,0.5,0,1,0.4c0.8,0.8,1.4,2.1,1.8,3.9c0.4,1.9,0.5,4.1,0.2,6.6c-0.2,2.1-1,4.5-2.5,7.1
		c-1,1.8-1.9,3.1-2.6,3.8c-0.7,0.7-1.1,0.8-1.4,0.6c-0.2-0.2-0.2-0.9,0.1-2c0.3-1.5,0.4-2.7,0.3-3.8l-0.4-0.4
		c-0.5,0.1-1.1,0.5-1.9,1c-0.6,0.4-0.9,0.5-1.2,0.3c-0.3-0.3-0.4-0.6-0.1-0.9c0.1-0.1,0.2-0.1,0.3-0.3c0.2-0.1,0.3-0.2,0.3-0.3
		c4.1-4.1,6.4-7.8,6.8-11c0.1-1.3-0.1-2.8-0.9-4.4C1328,38.1,1328,37.9,1328.1,37.8z M1311.7,44.8c0.2-0.2,0.5-0.4,1.1-0.8
		c0.6-0.4,1-0.7,1.3-1c0.8-0.8,1.6-1.6,2.3-2.5c0.8-0.9,1.2-1.4,1.2-1.4c0.6-0.6,1.4-1.1,2.4-1.6c1-0.4,2-0.8,3.1-1
		c0.6-0.1,1.3-0.2,1.9-0.3c0.4-0.1,0.7-0.2,1.1-0.4c0.4-0.1,0.8,0,1.1,0.4c0.2,0.2,0.3,0.5,0.3,0.8c0,2.1-0.1,3.7-0.3,4.8
		c-0.1,0.8-0.4,1.7-0.9,2.7c-0.5,1-1.1,2-1.8,2.8c-0.9,1.1-2.8,3.1-5.7,6c-0.2,0.2-0.5,0.3-0.7,0.1c-0.3-0.3-0.4-0.9-0.1-1.7
		c0.2-0.5,0.3-0.8,0.3-0.9c0.1-0.3,0-0.5-0.1-0.6c-0.3-0.3-0.8-0.4-1.5-0.2c-0.7,0.1-1.4,0.5-2.2,1.2c-0.5,0.5-1.1,1-1.6,1.4
		c-0.4,0.3-0.6,0.3-0.9,0.1c-0.2-0.2-0.3-0.5-0.3-0.7c0.3-0.3,0.8-1.1,1.6-2.4c0.4-0.8,0.6-1.5,0.8-2.3c0.1-0.7,0-1.1-0.1-1.2
		c-0.2-0.2-0.6-0.1-1.4,0.1c-0.7,0.3-1.2,0.3-1.4,0.1C1311.1,45.8,1311.2,45.4,1311.7,44.8z M1323,40.1c-1.4,1.4-3.1,3.4-5,5.9
		c-0.2,0.2-0.4,0.5-0.6,0.7c-0.1,0.2-0.2,0.3-0.1,0.4c0.1,0.1,0.6-0.1,1.4-0.8c1-0.7,2.1-1.7,3.4-3c1.4-1.4,2.5-2.7,3.2-3.8
		c0.6-0.9,0.8-1.4,0.6-1.5C1325.8,37.7,1324.8,38.4,1323,40.1z M1304.3,37.9c0.1-0.1,0.6-0.4,1.4-0.9c1.1-0.7,2.2-1.3,3.3-1.8
		c2.2-1,4.6-1.7,7.2-1.8c2.1-0.1,4.1,0,6.2,0.3c1.6,0.3,2.4,0.5,2.6,0.6c0.2,0.2,0.2,0.4,0,0.6c-0.1,0.1-0.5,0.1-1.3,0.2
		c-1.1,0.1-2.2,0.3-3.2,0.5c-3.1,0.8-5.7,2.1-7.5,4c-0.4,0.4-0.8,0.9-1.3,1.5c-0.4,0.6-0.7,0.9-0.8,0.9c-0.2,0.2-0.4,0.2-0.6,0
		c-0.1-0.1-0.1-0.5,0.2-1.1c0.2-0.4,0.3-0.8,0.5-1.2c0.1-0.3,0.1-0.4,0-0.5c-0.2-0.2-1.2-0.2-2.9,0c-2.1,0.2-3.4,0-3.9-0.5
		C1303.9,38.4,1304,38.2,1304.3,37.9z"/>
	<path class="st1" d="M1287.7,55.1c3.7,0.1,5.4,3,4.8,6c-0.6,3-6.2,7.1-10,6c-4.8-1.4-8.6-6.6-6.8-13c1.9-6.4,9.4-10,13-10.8
		c3.6-0.8,12.5-1.8,15.2,1.1c2.7,2.9,2.5,4.7,1.5,6.3c-1,1.6-3.2,3.2-5.6,0.8c-2.4-2.4-4.1-3.1-5.9-3.7c-1.8-0.6-6.4-0.3-8.9,0.6
		c-3.7,1.3-6.5,4-7.1,6c-1.1,3.8,0.5,8.4,4,9.9c2.3,1,4.3,0.7,6.1-0.1c1.1-0.5,1.9-1.7,2.1-3.1c-2,0.2-3.8-1.4-4.1-3.2
		C1285.8,56.8,1285.8,55,1287.7,55.1z"/>
	<g>
		<path class="st1" d="M1327.6,110c4.2,7.7-10.6,7.9-7.9-0.8c2.2-7,13-6.4,15,0.7c1.6,5.8-0.1,12.9-6.4,14.9
			c-18.5,5.7-23.5-18.5-13.4-28.3c12.3-12.1,18.3-31.8,2.2-43.2c-0.5-0.4-2.8-0.3-1.8,0.4c12.7,9,11.3,25.2,2.3,36.6
			c-5.6,7.1-13.7,13.3-10.5,23.6c4,12.8,21.1,18.7,29.4,5.9c3.5-5.5,1-11.7-3.5-15.1c-5-3.8-12.4-4.2-15.1,2.1c-3,7,1,11,5.3,11.5
			c4.4,0.5,9.2-2.4,7.3-7.1c-0.2-0.4-0.4-0.7-0.9-1.2c-0.6-0.5-1.1-0.6-1.6-0.8C1327.5,109.3,1327.3,109.5,1327.6,110z"/>
	</g>
	<path class="st1" d="M1309.7,77.1c-0.1-3.7-3-5.4-6-4.8c-3,0.6-7.1,6.2-6,10c1.4,4.8,6.6,8.6,13,6.8c6.4-1.9,10-9.4,10.8-13
		c0.8-3.6,1.8-12.5-1.1-15.2c-2.9-2.7-4.7-2.5-6.3-1.5c-1.6,1-3.2,3.2-0.8,5.6c2.4,2.4,3.1,4.1,3.7,5.9c0.6,1.8,0.3,6.4-0.6,8.9
		c-1.3,3.7-4,6.5-6,7.1c-3.8,1.1-8.4-0.5-9.9-4c-1-2.3-0.7-4.3,0.1-6.1c0.5-1.1,1.7-1.9,3.1-2.1c-0.2,2,1.4,3.8,3.2,4.1
		C1308,79,1309.7,78.9,1309.7,77.1z"/>
</g>
</svg>
